<svg width="166" height="30" viewBox="0 0 166 30" fill="none" xmlns="http://www.w3.org/2000/svg">
<path d="M165.125 28.5431C165.392 28.4742 165.553 28.2016 165.484 27.9342L164.362 23.5764C164.293 23.309 164.02 23.148 163.753 23.2169C163.486 23.2857 163.325 23.5583 163.394 23.8258L164.391 27.6994L160.517 28.6969C160.25 28.7658 160.089 29.0384 160.158 29.3058C160.227 29.5733 160.499 29.7342 160.767 29.6653L165.125 28.5431ZM1 28.0589L1.23606 28.4997C3.86406 27.0922 6.44434 25.7368 8.98083 24.4342L8.75241 23.9894L8.52399 23.5446C5.98192 24.8501 3.39653 26.2082 0.763943 27.6181L1 28.0589ZM24.4495 16.3681L24.6561 16.8234C30.2042 14.3056 35.5566 12.0862 40.7637 10.1741L40.5914 9.70474L40.419 9.23538C35.1852 11.1573 29.8098 13.3864 24.2428 15.9128L24.4495 16.3681ZM57.2648 4.53118L57.3853 5.01643C63.1845 3.57559 68.8596 2.5699 74.4915 2.0135L74.4423 1.51592L74.3931 1.01834C68.709 1.57991 62.9861 2.59448 57.1442 4.04593L57.2648 4.53118ZM91.8819 1.24088L91.8479 1.73972C97.4983 2.12538 103.193 2.97861 109.013 4.31531L109.125 3.82799L109.237 3.34068C103.368 1.9928 97.6214 1.13146 91.916 0.742038L91.8819 1.24088ZM125.845 8.8532L125.673 9.3225C130.856 11.2275 136.185 13.4896 141.708 16.1185L141.923 15.667L142.138 15.2156C136.59 12.5751 131.233 10.3008 126.018 8.38389L125.845 8.8532ZM157.406 23.6967L157.163 24.1334C159.647 25.519 162.174 26.9707 164.746 28.4894L165 28.0589L165.254 27.6283C162.675 26.1057 160.142 24.6499 157.65 23.2601L157.406 23.6967ZM165.125 28.5431C165.392 28.4742 165.553 28.2016 165.484 27.9342L164.362 23.5764C164.293 23.309 164.02 23.148 163.753 23.2169C163.486 23.2857 163.325 23.5583 163.394 23.8258L164.391 27.6994L160.517 28.6969C160.25 28.7658 160.089 29.0384 160.158 29.3058C160.227 29.5733 160.499 29.7342 160.767 29.6653L165.125 28.5431ZM1 28.0589L1.23606 28.4997C3.86406 27.0922 6.44434 25.7368 8.98083 24.4342L8.75241 23.9894L8.52399 23.5446C5.98192 24.8501 3.39653 26.2082 0.763943 27.6181L1 28.0589ZM24.4495 16.3681L24.6561 16.8234C30.2042 14.3056 35.5566 12.0862 40.7637 10.1741L40.5914 9.70474L40.419 9.23538C35.1852 11.1573 29.8098 13.3864 24.2428 15.9128L24.4495 16.3681ZM57.2648 4.53118L57.3853 5.01643C63.1845 3.57559 68.8596 2.5699 74.4915 2.0135L74.4423 1.51592L74.3931 1.01834C68.709 1.57991 62.9861 2.59448 57.1442 4.04593L57.2648 4.53118ZM91.8819 1.24088L91.8479 1.73972C97.4983 2.12538 103.193 2.97861 109.013 4.31531L109.125 3.82799L109.237 3.34068C103.368 1.9928 97.6214 1.13146 91.916 0.742038L91.8819 1.24088ZM125.845 8.8532L125.673 9.3225C130.856 11.2275 136.185 13.4896 141.708 16.1185L141.923 15.667L142.138 15.2156C136.59 12.5751 131.233 10.3008 126.018 8.38389L125.845 8.8532ZM157.406 23.6967L157.163 24.1334C159.647 25.519 162.174 26.9707 164.746 28.4894L165 28.0589L165.254 27.6283C162.675 26.1057 160.142 24.6499 157.65 23.2601L157.406 23.6967Z" fill="#FF532F"/>
</svg>
