<svg width="166" height="30" viewBox="0 0 166 30" fill="none" xmlns="http://www.w3.org/2000/svg">
<path d="M165.48 2.20076C165.557 1.93538 165.404 1.65835 165.138 1.582L160.814 0.33768C160.548 0.261322 160.271 0.414552 160.195 0.679927C160.119 0.945303 160.272 1.22233 160.537 1.29869L164.381 2.40475L163.275 6.24879C163.199 6.51416 163.352 6.79119 163.617 6.86755C163.883 6.94391 164.16 6.79068 164.236 6.5253L165.48 2.20076ZM1 2.0625L0.745712 2.49301C3.33187 4.02057 5.87118 5.4809 8.36685 6.87502L8.61069 6.43851L8.85453 6.002C6.36628 4.61203 3.83395 3.15571 1.25429 1.63199L1 2.0625ZM24.1315 14.5199L23.9154 14.9707C29.4867 17.642 34.8475 19.9453 40.0422 21.8942L40.2178 21.4261L40.3935 20.958C35.2294 19.0205 29.8957 16.7291 24.3477 14.069L24.1315 14.5199ZM56.9167 26.6107L56.7993 27.0967C62.7287 28.5291 68.4852 29.4611 74.1483 29.9176L74.1885 29.4192L74.2286 28.9208C68.6206 28.4687 62.9158 27.5455 57.0341 26.1246L56.9167 26.6107ZM91.6682 29.3193L91.714 29.8172C97.4703 29.2873 103.212 28.2751 109.027 26.8106L108.905 26.3257L108.783 25.8409C103.013 27.2939 97.3228 28.2966 91.6223 28.8214L91.6682 29.3193ZM125.565 21.0206L125.743 21.488C130.98 19.4991 136.337 17.1904 141.869 14.5814L141.656 14.1291L141.443 13.6769C135.929 16.2769 130.597 18.575 125.388 20.5531L125.565 21.0206ZM157.286 6.25154L157.521 6.69294C160.051 5.3468 162.623 3.94866 165.242 2.50003L165 2.0625L164.758 1.62497C162.143 3.0713 159.576 4.46683 157.051 5.81014L157.286 6.25154ZM165.48 2.20076C165.557 1.93538 165.404 1.65835 165.138 1.582L160.814 0.33768C160.548 0.261322 160.271 0.414552 160.195 0.679927C160.119 0.945303 160.272 1.22233 160.537 1.29869L164.381 2.40475L163.275 6.24879C163.199 6.51416 163.352 6.79119 163.617 6.86755C163.883 6.94391 164.16 6.79068 164.236 6.5253L165.48 2.20076ZM1 2.0625L0.745712 2.49301C3.33187 4.02057 5.87118 5.4809 8.36685 6.87502L8.61069 6.43851L8.85453 6.002C6.36628 4.61203 3.83395 3.15571 1.25429 1.63199L1 2.0625ZM24.1315 14.5199L23.9154 14.9707C29.4867 17.642 34.8475 19.9453 40.0422 21.8942L40.2178 21.4261L40.3935 20.958C35.2294 19.0205 29.8957 16.7291 24.3477 14.069L24.1315 14.5199ZM56.9167 26.6107L56.7993 27.0967C62.7287 28.5291 68.4852 29.4611 74.1483 29.9176L74.1885 29.4192L74.2286 28.9208C68.6206 28.4687 62.9158 27.5455 57.0341 26.1246L56.9167 26.6107ZM91.6682 29.3193L91.714 29.8172C97.4703 29.2873 103.212 28.2751 109.027 26.8106L108.905 26.3257L108.783 25.8409C103.013 27.2939 97.3228 28.2966 91.6223 28.8214L91.6682 29.3193ZM125.565 21.0206L125.743 21.488C130.98 19.4991 136.337 17.1904 141.869 14.5814L141.656 14.1291L141.443 13.6769C135.929 16.2769 130.597 18.575 125.388 20.5531L125.565 21.0206ZM157.286 6.25154L157.521 6.69294C160.051 5.3468 162.623 3.94866 165.242 2.50003L165 2.0625L164.758 1.62497C162.143 3.0713 159.576 4.46683 157.051 5.81014L157.286 6.25154Z" fill="#FF532F"/>
</svg>
