<svg width="80" height="80" viewBox="0 0 80 80" fill="none" xmlns="http://www.w3.org/2000/svg">
<g clip-path="url(#clip0_0_11426)">
<path fill-rule="evenodd" clip-rule="evenodd" d="M46.8034 40.1985L73.1209 40.192L73.1111 13.8745L46.7969 13.881L46.8034 40.1985Z" fill="#FCB900"/>
<path fill-rule="evenodd" clip-rule="evenodd" d="M7.81118 26.3804L34.1287 26.3739L34.1189 0.0563965L7.80469 0.0628866L7.81118 26.3804Z" fill="#FCB900"/>
<path fill-rule="evenodd" clip-rule="evenodd" d="M34.0736 -0.0566406L47.0408 13.8258L47.0376 40.1725L34.0703 26.3387L34.0736 -0.0566406Z" fill="#1B1918"/>
<mask id="mask0_0_11426" style="mask-type:luminance" maskUnits="userSpaceOnUse" x="1" y="71" width="79" height="10">
<path d="M1.74219 71.4458H79.0851V80.003H1.74219V71.4458Z" fill="white"/>
</mask>
<g mask="url(#mask0_0_11426)">
<path fill-rule="evenodd" clip-rule="evenodd" d="M2.33594 71.8211H3.65019V78.0581H2.33594V71.8211ZM4.74053 78.0581V73.4371H5.912V74.1121H5.93147C6.22353 73.5831 6.69082 73.3138 7.31712 73.3138C7.8201 73.3138 8.216 73.4501 8.50157 73.7227C8.78713 73.9953 8.93316 74.3749 8.93316 74.8617V78.0581H7.70653V75.2673C7.70653 74.9753 7.66109 74.7546 7.56374 74.5924C7.46964 74.4301 7.25222 74.349 6.90824 74.349C6.58049 74.349 6.3436 74.4496 6.18783 74.6508C6.03856 74.8552 5.96392 75.1083 5.96392 75.4166V78.0581H4.74053ZM10.1987 77.117V74.3133H9.57244V73.4371H10.1987V72.1975H11.4221V73.4371H12.1685V74.3133H11.4221V76.8217C11.4221 76.9775 11.4481 77.0781 11.5 77.1235C11.5519 77.1722 11.6882 77.1917 11.9089 77.1917C11.9608 77.1884 12.0062 77.1852 12.0419 77.1819C12.0809 77.1787 12.1231 77.1787 12.1685 77.1787V78.097C12.0647 78.097 11.9705 78.1003 11.8894 78.1003C11.8018 78.1035 11.7077 78.1068 11.6039 78.1133H11.4384C10.9451 78.1133 10.6109 78.0321 10.4454 77.8666C10.2799 77.7011 10.1987 77.4513 10.1987 77.117ZM12.5676 75.66C12.5676 75.011 12.7526 74.4561 13.1096 74.0018C13.473 73.5442 14.0312 73.3138 14.7938 73.3138C15.5661 73.3138 16.121 73.5572 16.4585 74.0407C16.7927 74.5275 16.9582 75.1343 16.9582 75.8579V76.0754H13.7748C13.8332 76.8347 14.1999 77.2111 14.8749 77.2111C15.0663 77.2111 15.2351 77.1657 15.3746 77.0684C15.5206 76.9742 15.6115 76.8542 15.6602 76.7049H16.9063C16.77 77.1722 16.5201 77.5324 16.1599 77.7952C15.803 78.0549 15.3746 78.1847 14.8749 78.1847C13.34 78.1847 12.5676 77.3442 12.5676 75.66ZM13.8267 75.303H15.7089C15.6861 74.9948 15.5888 74.7546 15.4201 74.5794C15.2481 74.4009 15.0371 74.3133 14.771 74.3133C14.4887 74.3133 14.2713 74.4041 14.1123 74.5826C13.9598 74.7611 13.8624 75.0012 13.8267 75.303ZM17.7565 78.0581V73.4371H18.9117V74.2484L18.9507 74.2354C19.0902 73.9563 19.2525 73.7357 19.418 73.5669C19.59 73.3982 19.8528 73.3138 20.2065 73.3138C20.2584 73.3138 20.3006 73.3138 20.3331 73.3203C20.3623 73.3235 20.4012 73.3268 20.4402 73.3333V74.5729C20.359 74.5599 20.2455 74.5567 20.1027 74.5567C19.3596 74.5567 18.9831 74.9234 18.9831 75.66V78.0581H17.7565ZM21.1346 78.0581V73.4371H22.3061V74.1121H22.3223C22.6176 73.5831 23.0817 73.3138 23.7112 73.3138C24.2142 73.3138 24.6101 73.4501 24.8956 73.7227C25.1812 73.9953 25.3272 74.3749 25.3272 74.8617V78.0581H24.1039V75.2673C24.1039 74.9753 24.0552 74.7546 23.9578 74.5924C23.8637 74.4301 23.6463 74.349 23.3056 74.349C22.9746 74.349 22.7344 74.4496 22.5852 74.6508C22.4326 74.8552 22.358 75.1083 22.358 75.4166V78.0581H21.1346ZM26.0801 75.66C26.0801 75.011 26.2618 74.4561 26.6253 74.0018C26.9855 73.5442 27.5436 73.3138 28.303 73.3138C29.0785 73.3138 29.6367 73.5572 29.9677 74.0407C30.3052 74.5275 30.4772 75.1343 30.4772 75.8579V76.0754H27.2905C27.3457 76.8347 27.7124 77.2111 28.3938 77.2111C28.582 77.2111 28.7475 77.1657 28.8871 77.0684C29.0299 76.9742 29.1272 76.8542 29.1694 76.7049H30.4188C30.2825 77.1722 30.0326 77.5324 29.6789 77.7952C29.3154 78.0549 28.8871 78.1847 28.3938 78.1847C26.8492 78.1847 26.0801 77.3442 26.0801 75.66ZM27.3392 75.303H29.2246C29.1986 74.9948 29.1013 74.7546 28.9325 74.5794C28.7605 74.4009 28.5464 74.3133 28.29 74.3133C28.0012 74.3133 27.7805 74.4041 27.6248 74.5826C27.469 74.7611 27.3749 75.0012 27.3392 75.303ZM31.428 77.117V74.3133H30.8017V73.4371H31.428V72.1975H32.6546V73.4371H33.3977V74.3133H32.6546V76.8217C32.6546 76.9775 32.6773 77.0781 32.7292 77.1235C32.7812 77.1722 32.9175 77.1917 33.1381 77.1917C33.19 77.1884 33.2355 77.1852 33.2744 77.1819C33.3134 77.1787 33.3523 77.1787 33.3977 77.1787V78.097C33.2939 78.097 33.1998 78.1003 33.1154 78.1003C33.031 78.1035 32.9369 78.1068 32.8331 78.1133H32.6676C32.1711 78.1133 31.8401 78.0321 31.6746 77.8666C31.5123 77.7011 31.428 77.4513 31.428 77.117ZM36.5552 71.8211H37.8662V78.0581H36.5552V71.8211ZM38.9598 78.0581V73.4371H40.1345V74.1121H40.1507C40.446 73.5831 40.9068 73.3138 41.5364 73.3138C42.0426 73.3138 42.4352 73.4501 42.7273 73.7227C43.0096 73.9953 43.1524 74.3749 43.1524 74.8617V78.0581H41.9323V75.2673C41.9323 74.9753 41.8803 74.7546 41.7895 74.5924C41.6921 74.4301 41.4747 74.349 41.1307 74.349C40.7997 74.349 40.5596 74.4496 40.4103 74.6508C40.2578 74.8552 40.1832 75.1083 40.1832 75.4166V78.0581H38.9598ZM44.418 77.117V74.3133H43.7949V73.4371H44.418V72.1975H45.6414V73.4371H46.3877V74.3133H45.6414V76.8217C45.6414 76.9775 45.6706 77.0781 45.7225 77.1235C45.7744 77.1722 45.9075 77.1917 46.1281 77.1917C46.18 77.1884 46.2255 77.1852 46.2644 77.1819C46.3001 77.1787 46.3423 77.1787 46.3877 77.1787V78.097C46.2839 78.097 46.1898 78.1003 46.1054 78.1003C46.0243 78.1035 45.9302 78.1068 45.8263 78.1133H45.6608C45.1611 78.1133 44.8301 78.0321 44.6678 77.8666C44.5023 77.7011 44.418 77.4513 44.418 77.117ZM46.7869 75.66C46.7869 75.011 46.9686 74.4561 47.332 74.0018C47.6922 73.5442 48.2536 73.3138 49.0097 73.3138C49.7886 73.3138 50.3435 73.5572 50.6777 74.0407C51.012 74.5275 51.1807 75.1343 51.1807 75.8579V76.0754H47.994C48.0525 76.8347 48.4191 77.2111 49.0974 77.2111C49.2888 77.2111 49.4543 77.1657 49.5971 77.0684C49.7366 76.9742 49.8307 76.8542 49.8794 76.7049H51.132C50.9892 77.1722 50.7394 77.5324 50.3824 77.7952C50.0222 78.0549 49.5939 78.1847 49.0974 78.1847C47.5592 78.1847 46.7869 77.3442 46.7869 75.66ZM48.046 75.303H49.9313C49.9086 74.9948 49.8113 74.7546 49.6393 74.5794C49.4738 74.4009 49.2531 74.3133 48.9935 74.3133C48.7112 74.3133 48.4905 74.4041 48.338 74.5826C48.1758 74.7611 48.0817 75.0012 48.046 75.303ZM52.0147 71.8211H53.2381V78.0581H52.0147V71.8211ZM54.416 73.4371H55.6394V78.0581H54.416V73.4371ZM54.416 71.7529H55.6394V72.8887H54.416V71.7529ZM57.8461 75.7703C57.8461 76.1175 57.924 76.4226 58.0765 76.6789C58.229 76.9353 58.4659 77.0651 58.7904 77.0651C59.4816 77.0651 59.8223 76.6173 59.8223 75.7184C59.8223 75.3225 59.7315 75.0012 59.553 74.7481C59.368 74.4918 59.1149 74.3652 58.7904 74.3652C58.5243 74.3652 58.3036 74.4755 58.1187 74.6995C57.9369 74.9234 57.8461 75.2803 57.8461 75.7703ZM56.574 75.6924C56.574 75.0467 56.733 74.4918 57.0608 74.0212C57.3853 73.5507 57.8688 73.3138 58.5081 73.3138C58.8163 73.3138 59.0857 73.382 59.3291 73.528C59.5724 73.6708 59.7509 73.8687 59.8613 74.1316H59.8775V73.4371H61.0295V77.8277C61.0295 78.2982 60.9613 78.6811 60.825 78.9862C60.6952 79.2912 60.4486 79.5281 60.1046 79.6936C59.7574 79.8624 59.2771 79.9467 58.6703 79.9467C58.2192 79.9467 57.7877 79.8396 57.3658 79.6287C56.9472 79.4178 56.72 79.0608 56.6908 78.5578H57.9953C58.0343 78.7071 58.1122 78.8239 58.2355 78.9051C58.3491 78.9862 58.547 79.0251 58.8261 79.0251C59.235 79.0251 59.4913 78.9343 59.6114 78.7493C59.7315 78.5643 59.7996 78.2982 59.8223 77.9543V77.4221L59.8061 77.3864C59.6633 77.6427 59.4816 77.8309 59.2642 77.938C59.0467 78.0451 58.8228 78.097 58.5827 78.097C58.0343 78.097 57.5605 77.9056 57.1646 77.5259C56.7687 77.143 56.574 76.5329 56.574 75.6924ZM61.7337 75.66C61.7337 75.011 61.9154 74.4561 62.2756 74.0018C62.6358 73.5442 63.1972 73.3138 63.9565 73.3138C64.7289 73.3138 65.287 73.5572 65.6213 74.0407C65.9555 74.5275 66.1275 75.1343 66.1275 75.8579V76.0754H62.9408C62.996 76.8347 63.3659 77.2111 64.0409 77.2111C64.2324 77.2111 64.3979 77.1657 64.5406 77.0684C64.6834 76.9742 64.7775 76.8542 64.823 76.7049H66.0723C65.9328 77.1722 65.6861 77.5324 65.3259 77.7952C64.969 78.0549 64.5406 78.1847 64.0409 78.1847C62.5027 78.1847 61.7337 77.3442 61.7337 75.66ZM62.9927 75.303H64.8749C64.8522 74.9948 64.7548 74.7546 64.5828 74.5794C64.4141 74.4009 64.1967 74.3133 63.9371 74.3133C63.6547 74.3133 63.4341 74.4041 63.2816 74.5826C63.1225 74.7611 63.0252 75.0012 62.9927 75.303ZM66.9258 78.0581V73.4371H68.094V74.1121H68.1135C68.412 73.5831 68.8696 73.3138 69.5023 73.3138C70.0053 73.3138 70.398 73.4501 70.6868 73.7227C70.9756 73.9953 71.1152 74.3749 71.1152 74.8617V78.0581H69.8918V75.2673C69.8918 74.9753 69.8431 74.7546 69.749 74.5924C69.6516 74.4301 69.4342 74.349 69.0967 74.349C68.7625 74.349 68.5223 74.4496 68.3763 74.6508C68.2206 74.8552 68.1459 75.1083 68.1459 75.4166V78.0581H66.9258ZM72.3807 77.117V74.3133H71.7577V73.4371H72.3807V72.1975H73.6074V73.4371H74.3537V74.3133H73.6074V76.8217C73.6074 76.9775 73.6333 77.0781 73.6852 77.1235C73.7372 77.1722 73.8767 77.1917 74.0909 77.1917C74.1428 77.1884 74.1915 77.1852 74.2272 77.1819C74.2629 77.1787 74.3051 77.1787 74.3537 77.1787V78.097C74.2466 78.097 74.1525 78.1003 74.0714 78.1003C73.987 78.1035 73.8929 78.1068 73.7891 78.1133H73.6236C73.1271 78.1133 72.7928 78.0321 72.6338 77.8666C72.4651 77.7011 72.3807 77.4513 72.3807 77.117ZM74.7529 75.66C74.7529 75.011 74.9314 74.4561 75.2948 74.0018C75.655 73.5442 76.2164 73.3138 76.9725 73.3138C77.7481 73.3138 78.303 73.5572 78.6405 74.0407C78.9747 74.5275 79.1434 75.1343 79.1434 75.8579V76.0754H75.96C76.0152 76.8347 76.3819 77.2111 77.0601 77.2111C77.2516 77.2111 77.4171 77.1657 77.5599 77.0684C77.6994 76.9742 77.7935 76.8542 77.8422 76.7049H79.0915C78.952 77.1722 78.7021 77.5324 78.3484 77.7952C77.985 78.0549 77.5566 78.1847 77.0601 78.1847C75.5219 78.1847 74.7529 77.3442 74.7529 75.66ZM76.0087 75.303H77.8941C77.8714 74.9948 77.774 74.7546 77.602 74.5794C77.4333 74.4009 77.2159 74.3133 76.9563 74.3133C76.6772 74.3133 76.4533 74.4041 76.2975 74.5826C76.1418 74.7611 76.0444 75.0012 76.0087 75.303Z" fill="#1B1918"/>
</g>
<path fill-rule="evenodd" clip-rule="evenodd" d="M0.960938 52.2931H15.7325V56.5474H11.0109V68.4308H5.72794V56.5474H0.960938V52.2931ZM16.7839 52.2931H29.9491V56.0541H22.0896V58.3808H28.716V62.1386H22.0896V64.673H30.2639V68.4308H16.7839V52.2931ZM41.9916 58.4717C42.063 57.4235 41.8358 56.7226 41.3069 56.3559C40.7747 55.9925 40.197 55.8042 39.5708 55.8042C38.5258 55.8042 37.6854 56.2553 37.0526 57.1477C36.4198 58.0466 35.9882 59.1596 35.7675 60.4869C35.7059 60.8438 35.6475 61.3955 35.5858 62.1386C35.6312 64.0045 36.4814 64.9359 38.1397 64.9359C39.6616 64.9359 40.7357 64.024 41.362 62.1873H46.4406C46.0836 63.4399 45.4865 64.5854 44.6525 65.6238C43.8153 66.659 42.7963 67.4605 41.5957 68.0284C40.395 68.5963 39.0645 68.8786 37.601 68.8786C35.3165 68.8786 33.5382 68.3075 32.2629 67.1685C30.9908 66.0262 30.3353 64.4329 30.3028 62.3885C30.3677 61.5837 30.4229 60.9477 30.4846 60.4869C30.8253 58.5301 31.5165 56.9043 32.5549 55.6063C33.5901 54.3083 34.7875 53.3542 36.1472 52.7409C37.5036 52.1276 38.8244 51.8388 40.1062 51.868C42.0338 51.9134 43.5168 52.2671 44.5617 52.9324C45.6066 53.5976 46.2816 54.3991 46.5866 55.337C46.8916 56.278 47.0312 57.3197 47.002 58.4717H41.9916ZM47.4498 52.2931H52.7555V57.7545H57.7691V52.2931H63.0748V68.4308H57.7691V62.1873H52.7555V68.4308H47.4498V52.2931ZM73.1475 56.9725C73.0112 56.0476 72.2875 55.5836 70.9733 55.5836C69.9316 55.5836 69.3864 55.8756 69.3442 56.4565C69.3248 56.8167 69.5 57.112 69.8667 57.3521C70.2301 57.5923 70.7202 57.7902 71.3335 57.9427C71.9435 58.1018 72.5341 58.2478 73.0988 58.3808C74.9939 58.8286 76.3893 59.4322 77.2849 60.1948C78.1806 60.9542 78.6219 62.0088 78.6057 63.3523C78.6057 64.6633 78.2552 65.7309 77.5543 66.5616C76.8533 67.3924 75.9317 67.983 74.7895 68.3432C73.6472 68.7001 72.4238 68.8786 71.1096 68.8786C69.1398 68.8786 67.4751 68.3756 66.1057 67.3697C64.7427 66.3604 64.0158 65.0527 63.925 63.4399H69.0035C69.1236 64.0824 69.4319 64.527 69.9348 64.7833C70.4313 65.0365 70.9506 65.163 71.4925 65.163C72.7873 65.1046 73.472 64.7347 73.5466 64.0662C73.6083 63.6054 73.3714 63.2517 72.8424 63.005C72.3167 62.7552 71.4957 62.5021 70.3924 62.2327C69.0035 61.8887 67.9002 61.5383 67.0792 61.1813C66.2582 60.8211 65.5832 60.2889 65.0543 59.5783C64.5286 58.8708 64.2657 57.933 64.2819 56.7713C64.3111 55.324 64.9504 54.1428 66.1965 53.2342C67.4426 52.3255 69.1463 51.868 71.3108 51.868C72.4595 51.868 73.5142 52.0302 74.4779 52.3515C75.4385 52.6695 76.2595 53.2147 76.928 53.9838C77.5997 54.7528 78.0183 55.7491 78.1806 56.9725H73.1475Z" fill="#1B1918"/>
</g>
<defs>
<clipPath id="clip0_0_11426">
<rect width="78.1724" height="80" fill="white" transform="translate(0.914062)"/>
</clipPath>
</defs>
</svg>
