<svg width="274" height="31" viewBox="0 0 274 31" fill="none" xmlns="http://www.w3.org/2000/svg">
<path fill-rule="evenodd" clip-rule="evenodd" d="M31.4325 0.669189H0.945312V9.04827H11.6353V30.9789H20.4845V9.04827H31.4325V0.669189ZM95.2799 9.02855V0.669189H67.0757V0.677403H66.9606V30.9789H95.2799V22.6195H75.8098V9.02855H95.2799ZM210.845 22.6014V0.677403H201.999V30.9789H225.93V22.6014H210.845ZM63.6389 9.02855V0.669189H34.414V0.677403H34.2989V30.9789H63.6389V22.6195H43.1497V19.5213H61.1768V12.1415H43.1497V9.02855H63.6389ZM120.384 0.677403V11.4249H107.359V0.677403H98.5079V30.9789H107.359V20.1262H120.384V30.9789H129.235V0.677403H120.384ZM191.799 30.9789H200.29L187.35 0.67576H178.499L165.555 30.9789H173.969L175.721 26.8731H190.045L191.799 30.9789ZM178.865 19.5213L182.884 10.1051L186.906 19.5213H178.865ZM155.197 16.9096V0.677403H164.048V30.9789H155.197L142.51 14.7384V30.9789H133.661V0.677403H142.51L155.197 16.9096ZM254.134 5.06253L251.652 2.57905H254.828V0.669189H242.366V13.131H244.276V10.018L246.764 12.5081L246.761 19.2287L244.279 21.7139V18.5384H242.369V31.0002H254.831V29.0904H251.72L254.208 26.6019H261.216L263.743 29.0904H260.593V31.0002H273.055V18.5384H271.145V21.7139L268.664 19.2287L268.66 12.5081L271.149 10.018V13.131H273.059V0.669189H260.597V2.57905H263.733L261.287 5.06253H254.134ZM261.146 7.88953H261.149L266.436 2.57905H271.149V7.31756L265.855 12.6116L265.858 19.1268L271.145 24.4143V29.092H266.369L261.078 23.7733H254.312L248.98 29.092H244.281V24.4143L249.568 19.1268L249.571 12.6116L244.277 7.31756V2.57905H248.952L254.243 7.88953H261.146Z" fill="black"/>
</svg>
