<svg width="228" height="40" viewBox="0 0 228 40" fill="none" xmlns="http://www.w3.org/2000/svg">
<g clip-path="url(#clip0_0_11417)">
<path fill-rule="evenodd" clip-rule="evenodd" d="M0.601562 -93.3591H227.359V133.398H0.601562V-93.3591Z" fill="white"/>
<path fill-rule="evenodd" clip-rule="evenodd" d="M49.3328 9.9817V7.30304H67.8952V9.9817H60.2098V30.9686H57.0206V9.9817H49.3328ZM87.9268 17.413V20.0916H75.5206V28.2888H89.5855V30.9686H72.3314V7.30304H89.2032V9.9817H75.5206V17.413H87.9268ZM114.178 23.1232C114.123 23.6611 114.027 24.194 113.891 24.7172C113.731 25.3444 113.507 25.9535 113.222 26.5348C112.626 27.81 111.628 28.9746 110.223 30.0275C108.82 31.0804 106.768 31.6062 104.068 31.6062C103.728 31.6062 103.021 31.5533 101.947 31.4474C100.873 31.3403 99.7414 31.0004 98.5497 30.4263C97.1039 29.7463 95.7863 28.577 94.5958 26.9194C93.4053 25.2607 92.8089 22.8044 92.8089 19.5505C92.8089 19.1258 92.8512 18.307 92.9371 17.0954C93.0218 15.8837 93.3194 14.5967 93.83 13.2368C94.4676 11.5781 95.5522 10.0629 97.0839 8.69237C98.6144 7.31951 100.911 6.63485 103.972 6.63485C106.886 6.63485 109.038 7.18305 110.43 8.2771C111.822 9.37115 112.764 10.5887 113.252 11.9286C113.423 12.3957 113.55 12.8592 113.635 13.3156C113.72 13.7732 113.784 14.2038 113.826 14.6085H110.575C110.552 14.3408 110.514 14.0746 110.463 13.8109C110.408 13.5277 110.328 13.2502 110.223 12.9815C109.883 12.0674 109.235 11.2275 108.277 10.4617C107.321 9.69583 105.886 9.31233 103.972 9.31233C101.207 9.31233 99.2202 10.2687 98.0074 12.1827C96.7957 14.0967 96.1898 16.5095 96.1898 19.4235C96.1898 21.848 96.8498 24.0432 98.1674 26.0101C99.4861 27.977 101.495 28.9605 104.196 28.9605C106.28 28.9605 107.886 28.3652 109.013 27.1735C110.14 25.9819 110.767 24.6337 110.894 23.1244L114.178 23.1232ZM122.633 30.9686H119.445V7.30304H122.633V17.1577H134.531V7.30304H137.72V30.9686H134.531V19.8375H122.633V30.9686ZM147.77 30.9686H144.581V7.30304H148.089L160.687 26.056V7.30304H163.876V30.9686H160.368L147.77 12.2145V30.9686ZM173.926 7.30304V30.9686H170.737V7.30304H173.926ZM195.68 7.30304H199.954L190.099 17.0295L200.59 30.9686H196.381L187.739 19.167L183.976 22.8668V30.9686H180.784V7.30304H183.976V19.0388L195.68 7.30304ZM214.404 31.6697C210.748 31.6486 207.952 30.5169 206.017 28.2723C204.081 26.0289 203.112 22.9832 203.112 19.1341C203.112 15.3284 204.096 12.2874 206.065 10.0123C208.032 7.73831 210.812 6.60074 214.404 6.60074C218.02 6.60074 220.804 7.73831 222.761 10.0123C224.716 12.2874 225.695 15.3284 225.695 19.1341C225.695 22.982 224.723 26.0277 222.777 28.2723C220.831 30.5169 218.042 31.6368 214.405 31.6368L214.404 31.6697ZM214.404 28.9911C217.106 28.9911 219.097 28.0711 220.384 26.2312C221.671 24.3914 222.315 22.0268 222.315 19.1352C222.315 16.0307 221.756 13.7767 220.64 12.3733C219.523 10.9699 218.284 10.0558 216.925 9.62995C216.502 9.50324 216.07 9.41273 215.633 9.35939C215.225 9.30807 214.815 9.28136 214.404 9.27939C213.875 9.29057 213.347 9.33853 212.825 9.42291C212.121 9.53598 211.438 9.75616 210.8 10.0758C209.716 10.5864 208.727 11.5275 207.835 12.8992C206.942 14.2708 206.495 16.3495 206.495 19.1341C206.493 19.6982 206.515 20.2622 206.559 20.8245C206.739 22.8338 207.424 24.765 208.551 26.4383C209.689 28.1394 211.64 28.9911 214.404 28.9911ZM22.2745 0.0187988C33.2903 0.0187988 42.2756 9.00411 42.2756 20.0199C42.2756 31.0357 33.2903 40.0221 22.2745 40.0221C11.2588 40.0221 2.27344 31.0357 2.27344 20.0199C2.27344 9.00411 11.2588 0.0187988 22.2745 0.0187988ZM8.25659 7.8183C8.64833 8.35709 9.0636 8.87236 9.50239 9.36291C8.16761 10.9568 7.14333 12.7867 6.48258 14.7579C5.85807 14.568 5.22436 14.4097 4.58388 14.2838C5.36043 11.9034 6.60963 9.70427 8.25659 7.8183ZM39.8781 14.0156C39.2195 14.0839 38.5646 14.1848 37.9159 14.3179C37.2528 12.5137 36.2834 10.8374 35.0502 9.36291C35.4878 8.87236 35.9031 8.3571 36.2948 7.81949C37.8782 9.63401 39.0951 11.7381 39.8781 14.0156ZM25.0908 36.4282C25.2967 37.0529 25.5343 37.6717 25.8049 38.2811C22.8931 38.845 19.8885 38.7026 17.0431 37.8658C17.296 37.2611 17.516 36.6471 17.7054 36.0283C20.1056 36.7164 22.6303 36.8532 25.0908 36.4282ZM36.456 14.6779C35.8737 13.1435 35.0466 11.7137 34.0067 10.444C30.8457 13.4732 26.746 15.3072 22.2745 15.3072C17.8042 15.3072 13.7045 13.4732 10.5423 10.4428C9.37322 11.8701 8.47425 13.4986 7.88955 15.2484C11.394 16.6307 14.3903 19.0588 16.3302 22.4174C18.4901 26.1595 18.9947 30.4604 18.083 34.5837C20.2248 35.2026 22.4771 35.3392 24.6779 34.9836C23.6427 30.7392 24.1073 26.2818 26.3378 22.4174C28.58 18.5341 32.2339 15.8954 36.456 14.6779Z" fill="black"/>
</g>
<defs>
<clipPath id="clip0_0_11417">
<rect width="226.757" height="40" fill="white" transform="translate(0.625)"/>
</clipPath>
</defs>
</svg>
