<svg width="170" height="42" viewBox="0 0 170 42" fill="none" xmlns="http://www.w3.org/2000/svg">
<g clip-path="url(#clip0_0_11410)">
<path fill-rule="evenodd" clip-rule="evenodd" d="M37.4297 -0.259766H90.7423V18.9913H87.4738L90.6241 8.75193H83.2917L80.6114 17.1913H73.667L76.3649 8.74312H69.005L61.9954 31.0325H69.3552L71.8643 22.9812H72.8203V42.2499H50.9278V31.3015C53.564 31.1083 55.872 30.3384 57.8582 29.2809C59.8434 28.2217 62.2158 25.1076 63.0872 22.0702L55.9073 22.0252C55.3499 23.2449 54.6338 24.3474 53.7827 24.9709C52.9616 25.5459 52.0629 25.9834 50.9278 26.0081V18.9913L48.9108 19.0363C49.5926 17.4435 50.3625 16.3966 51.3397 15.4371C52.6997 14.4343 53.407 13.8557 55.0448 13.8557C55.9946 13.8557 56.2636 14.0277 56.6896 14.5428C57.1156 15.0852 57.0865 16.0509 56.9224 16.9999L64.1799 16.9549C64.8934 14.5966 64.5459 11.7241 63.1851 10.5044C62.0059 9.16027 59.2252 8.36388 56.2442 8.43532C52.7394 8.43532 49.4347 9.49277 46.9459 11.4172C44.7622 13.0003 42.6799 15.9045 41.5969 18.9904H39.0454L39.9177 16.5042H37.4306V14.5331L41.5784 14.5463L43.411 8.75899L37.4306 8.75635L37.4297 -0.259766Z" fill="#AEB0B2"/>
<path fill-rule="evenodd" clip-rule="evenodd" d="M130.66 42.2579H77.2344V31.0317H83.5817L86.2126 22.812H90.4036L87.6836 31.0317H94.8389L99.2177 16.9682L99.9092 31.0317L105.746 30.9867L114.999 17.059L110.35 30.9867H117.415L120.046 22.8111H123.97L121.345 30.9744L130.659 30.9964V42.2579H130.66ZM77.2344 28.213V22.9469H78.7654L77.2344 28.213ZM95.0435 8.7573V-0.25H116.822V8.77053H114.052L106.314 20.3143L105.839 8.75465L95.0435 8.7573Z" fill="#BF5332"/>
<path fill-rule="evenodd" clip-rule="evenodd" d="M19.7147 30.3742L26.331 9.39273H42.4468L41.0048 13.9462H30.851L29.8685 17.0912H39.1051L37.664 21.6438H28.4274L27.1168 25.8198H37.5335L36.0915 30.3742H19.7147ZM57.6444 16.413C57.8085 15.464 57.6118 14.6782 57.1858 14.1358C56.7598 13.6208 56.0402 13.268 55.0903 13.268C53.4526 13.268 51.9788 13.8915 50.7988 15.0301C49.5208 16.2498 48.5057 17.9846 47.8513 20.0722C47.196 22.1862 47.0981 23.8398 47.5894 24.8973C48.1459 25.9274 49.2272 26.5509 50.7997 26.5509C51.9788 26.5509 53.158 26.1982 54.0099 25.602C54.8619 24.9784 55.713 23.921 56.2704 22.7013H62.2314C61.1175 25.4935 59.4145 27.6084 57.3181 28.8281C55.1891 30.0479 52.3722 30.7525 48.9326 30.7525C45.6571 30.7525 43.3649 29.7762 42.1196 28.0414C40.8743 26.2793 40.7437 23.6785 41.7915 20.3429C42.938 16.7649 44.8051 13.9727 47.2613 12.0483C49.751 10.123 52.8299 9.06641 56.3347 9.06641C59.3157 9.06641 61.51 9.68994 62.6892 10.9097C63.9336 12.1294 64.229 14.0538 63.639 16.4121L57.6444 16.413ZM62.8532 30.3998L69.5022 9.42007H75.4632L72.8103 17.8232H81.1632L83.8161 9.42007H89.7781L83.1282 30.3998H77.1671L79.7221 22.3503H71.3692L68.8143 30.3998H62.8532ZM88.628 30.3998L95.2779 9.42007H105.202L105.695 22.4587L114.375 9.42007H123.611L116.961 30.3998H111.295L116.667 13.5396L105.202 30.3998H100.585L99.6673 13.5396L94.2954 30.3998H88.628ZM122.228 30.3998L128.878 9.42007H144.993L143.553 13.9735H133.398L132.416 17.1177H141.652L140.21 21.672H130.975L129.63 25.8472H140.08L138.639 30.3998H122.228ZM148.305 30.3998L153.513 13.9735H146.962L148.404 9.42007H167.499L166.058 13.9735H159.475L154.299 30.3998H148.305ZM3.87583 30.3998L9.08371 13.9735H2.5L3.9411 9.42007H23.0369L21.5959 13.9735H15.0448L9.83689 30.3998H3.87583Z" fill="black"/>
</g>
<defs>
<clipPath id="clip0_0_11410">
<rect width="170" height="42" fill="white"/>
</clipPath>
</defs>
</svg>
