<svg width="224" height="24" viewBox="0 0 224 24" fill="none" xmlns="http://www.w3.org/2000/svg">
<path d="M1.1875 1.60532H26.2777V6.95525H17.0235V23.0791H10.4405V6.95525H1.1875V1.60532Z" fill="black"/>
<path d="M29.1562 1.60532H52.6316V6.5969H35.7294V10.0317H51.742V14.4797H35.7294V17.9145H53.027V23.0791H29.1562V1.60532Z" fill="black"/>
<path d="M56.5234 9.14194L56.5358 8.56123L56.5605 8.01759L56.6099 7.49866L56.6841 7.00444L56.7705 6.53493L56.8817 6.09014L57.0177 5.67006L57.1659 5.27468L57.3389 4.90401L57.5242 4.55807L57.7219 4.22447L57.9567 3.91558L58.1914 3.6314L58.4509 3.37194L58.7351 3.12484L59.0316 2.90244L59.3405 2.69239L59.6741 2.50706L60.02 2.33408L60.3783 2.17346L60.7614 2.03755L61.1567 1.90164L61.5768 1.80279L61.9969 1.70395L62.4417 1.61746L62.9112 1.54334L63.3807 1.49392L63.8749 1.44449L64.3815 1.40743L64.9004 1.38272L65.4317 1.37036H65.9754H73.7222C83.0877 1.37036 84.3109 3.38429 84.2491 9.46317H77.6636V8.87012C77.6636 7.33804 76.5393 6.89324 74.5871 6.89324H67.4086C63.9367 6.89324 63.2819 8.52416 63.2819 11.1929V13.5034C63.2819 16.617 63.9367 17.8031 67.0503 17.8031H74.0805C77.0458 17.8031 77.9354 17.5066 77.9354 14.8378H84.5085V16.8517C84.5085 20.4719 83.2112 23.3136 76.5887 23.3136H65.9754C60.0447 23.3136 56.5234 21.831 56.5234 15.5421V9.14194Z" fill="black"/>
<path d="M88.4844 1.60532H95.0698V9.26572H108.945V1.60532H115.53V23.0791H108.945V14.9616H95.0698V23.0791H88.4844V1.60532Z" fill="black"/>
<path d="M119.977 1.60532H126.562V9.50047H129.639L137.941 1.60532H146.899L135.273 12.1075L148.271 23.0791H138.955L129.466 14.838H126.562V23.0791H119.977V1.60532Z" fill="black"/>
<path d="M159.71 1.35889C153.779 1.35889 150.258 2.85395 150.258 9.14287V15.5369V16.1237L150.289 16.6797L150.35 17.174L150.412 17.6682L150.505 18.1624L150.628 18.5949L150.752 19.0273L150.906 19.398L151.061 19.7686L151.246 20.1393L151.462 20.4482L151.679 20.7571L151.926 21.066L152.204 21.3131L152.451 21.5602L152.76 21.8073L153.069 21.9926L153.408 22.178L153.748 22.3633L154.119 22.5177L154.49 22.6722L154.891 22.7957L155.293 22.8884L155.725 22.9811L156.188 23.0737L156.652 23.1355L157.115 23.1973L157.609 23.2282L158.104 23.29H158.629L159.154 23.3208H159.71H170.274C176.204 23.3208 179.726 21.8258 179.726 15.5369V9.14287C179.726 2.85395 176.204 1.35889 170.274 1.35889H159.71ZM160.667 6.88799H160.822H160.976H161.131H168.853C172.325 6.88799 172.961 8.51275 172.961 11.1815V13.4982C172.961 16.6118 172.306 17.7917 169.193 17.7917H160.791C157.677 17.7917 157.022 16.6118 157.022 13.4982V11.1815V10.9344V10.6873V10.4711L157.053 10.2549L157.084 10.0078V9.79154L157.146 9.57531L157.177 9.38998L157.208 9.20465L157.27 9.01932L157.331 8.83398L157.393 8.64865L157.486 8.49421L157.578 8.33976L157.671 8.18532L157.764 8.03087L157.887 7.90732L158.011 7.78376L158.165 7.66021L158.32 7.53665L158.474 7.44399L158.629 7.35132L158.814 7.25865L159.03 7.19688L159.246 7.10421L159.463 7.04243L159.71 7.01154L159.957 6.98065L160.111 6.94976L160.235 6.91888H160.358H160.513L160.667 6.88799Z" fill="black"/>
<path d="M183.695 1.60532H193.901L206.269 17.2103H206.318V1.60532H212.904V23.0791H202.71L190.343 7.48653H190.281V23.0791H183.695V1.60532Z" fill="black"/>
<path d="M218.828 0.679199C217.729 0.679199 216.784 1.08693 216.018 1.85297C215.227 2.63136 214.844 3.57657 214.844 4.66386C214.844 5.77585 215.251 6.69634 216.018 7.47474C216.796 8.26548 217.729 8.64852 218.828 8.64852C219.928 8.64852 220.873 8.26548 221.639 7.47474C222.43 6.69634 222.813 5.77585 222.813 4.66386V4.57119V4.44764V4.35497V4.2623V4.16964L222.782 4.07697V3.95341L222.751 3.86075V3.76808L222.72 3.67542L222.69 3.58275L222.659 3.49008L222.628 3.39742L222.597 3.30475L222.566 3.21208L222.535 3.15031L222.504 3.05764L222.442 2.96497L222.412 2.87231L222.381 2.77964L222.319 2.71786L222.288 2.6252L222.226 2.53253L222.164 2.47075L222.103 2.37808L222.072 2.31631L222.01 2.22364L221.948 2.16186L221.856 2.0692L221.794 2.00742L221.732 1.91475L221.639 1.85297C220.873 1.08693 219.928 0.679199 218.828 0.679199ZM218.828 1.2352H218.921H219.014H219.106H219.199L219.292 1.26609H219.354L219.446 1.29698H219.539H219.601L219.693 1.32786L219.786 1.35875H219.848L219.94 1.38964L220.002 1.42053L220.095 1.45142L220.157 1.48231L220.249 1.5132L220.311 1.54409L220.404 1.60586L220.466 1.63675L220.527 1.66764L220.62 1.69853L220.682 1.76031L220.744 1.7912L220.836 1.85297L220.898 1.91475L220.96 1.94564L221.022 2.00742L221.083 2.0692L221.145 2.13097L221.207 2.19275L221.269 2.25453C221.936 2.92172 222.288 3.71248 222.288 4.66386C222.288 5.62758 221.936 6.42452 221.269 7.10407C220.601 7.77126 219.792 8.12341 218.828 8.12341C217.877 8.12341 217.055 7.77126 216.388 7.10407C215.721 6.42452 215.4 5.62758 215.4 4.66386C215.4 3.71248 215.721 2.92172 216.388 2.25453C217.068 1.57498 217.877 1.2352 218.828 1.2352Z" fill="black"/>
<path d="M217.227 2.4707V6.82603H217.999V5.12714H218.617C219.037 5.12714 219.308 5.16421 219.481 5.2507C219.753 5.41132 219.914 5.73256 219.914 6.23914V6.60981V6.73336C219.914 6.75807 219.902 6.78278 219.914 6.79514C219.914 6.80749 219.945 6.81367 219.945 6.82603H220.655L220.624 6.76425C220.612 6.73954 220.606 6.67158 220.593 6.54803C220.593 6.43683 220.593 6.33798 220.593 6.23914V5.89936C220.593 5.67696 220.507 5.45456 220.346 5.21981C220.198 4.98505 219.939 4.86768 219.605 4.81825C219.864 4.76883 220.075 4.66999 220.223 4.57114C220.507 4.39817 220.655 4.12017 220.655 3.73715C220.655 3.1935 220.433 2.81048 219.976 2.62515C219.729 2.51395 219.327 2.4707 218.771 2.4707H217.227ZM217.999 2.99581H218.647C219.08 2.99581 219.407 3.06995 219.605 3.18115C219.803 3.27999 219.914 3.47768 219.914 3.79892V3.82981V3.8607V3.89159L219.883 3.92248V3.95337V3.98426V4.01514L219.852 4.04603V4.07692V4.10781V4.1387H219.821V4.16959L219.79 4.20048L219.759 4.23137V4.26226H219.729V4.29314L219.698 4.32403H219.667V4.35492H219.636L219.605 4.38581L219.574 4.4167H219.543L219.512 4.44759H219.481L219.42 4.47848C219.259 4.55261 219.012 4.57114 218.678 4.57114H217.999V2.99581Z" fill="black"/>
</svg>
