<svg width="564" height="344" viewBox="0 0 564 344" fill="none" xmlns="http://www.w3.org/2000/svg">
<path d="M525.781 300.241L525.728 300.209M525.781 300.241L525.836 300.209M525.781 300.241V342.946M525.781 300.241V300.178M525.728 300.209L489.234 278.756M525.728 300.209L525.781 300.178M489.234 278.756L525.781 257.473L562.725 278.756M489.234 278.756V321.461L525.781 342.946M562.725 278.756L525.836 300.209M562.725 278.756V321.461L525.781 342.946M525.836 300.209L525.781 300.178M378.797 300.241L378.743 300.209M378.797 300.241L378.851 300.209M378.797 300.241V342.946M378.797 300.241V300.178M378.743 300.209L342.25 278.756M378.743 300.209L378.797 300.178M342.25 278.756L378.797 257.473L415.741 278.756M342.25 278.756V321.461L378.797 342.946M415.741 278.756L378.851 300.209M415.741 278.756V321.461L378.797 342.946M378.851 300.209L378.797 300.178M489.035 236.063L488.981 236.031M489.035 236.063L489.089 236.031M489.035 236.063V278.768M489.035 236.063V236M488.981 236.031L452.488 214.579M488.981 236.031L489.035 236M452.488 214.579L489.035 193.295L525.979 214.579M452.488 214.579V257.284L489.035 278.768M525.979 214.579L489.089 236.031M525.979 214.579V257.284L489.035 278.768M489.089 236.031L489.035 236M525.781 172.032L525.728 172M525.781 172.032L525.836 172M525.781 172.032V214.737M525.781 172.032V171.969M525.728 172L489.234 150.547M525.728 172L525.781 171.969M489.234 150.547L525.781 129.264L562.725 150.547M489.234 150.547V193.252L525.781 214.737M562.725 150.547L525.836 172M562.725 150.547V193.252L525.781 214.737M525.836 172L525.781 171.969M489.035 107.897L488.981 107.865M489.035 107.897L489.089 107.865M489.035 107.897V150.602M489.035 107.897V107.834M488.981 107.865L452.488 86.4125M488.981 107.865L489.035 107.834M452.488 86.4125L489.035 65.1289L525.979 86.4125M452.488 86.4125V129.118L489.035 150.602M525.979 86.4125L489.089 107.865M525.979 86.4125V129.118L489.035 150.602M489.089 107.865L489.035 107.834M415.543 107.897L415.489 107.865M415.543 107.897L415.597 107.865M415.543 107.897V150.602M415.543 107.897V107.834M415.489 107.865L378.996 86.4125M415.489 107.865L415.543 107.834M378.996 86.4125L415.543 65.1289L452.487 86.4125M378.996 86.4125V129.118L415.543 150.602M452.487 86.4125L415.597 107.865M452.487 86.4125V129.118L415.543 150.602M415.597 107.865L415.543 107.834M415.543 236.084L415.489 236.053M415.543 236.084L415.597 236.053M415.543 236.084V278.789M415.543 236.084V236.021M415.489 236.053L378.996 214.6M415.489 236.053L415.543 236.021M378.996 214.6L415.543 193.316L452.487 214.6M378.996 214.6V257.305L415.543 278.789M452.487 214.6L415.597 236.053M452.487 214.6V257.305L415.543 278.789M415.597 236.053L415.543 236.021M378.797 172.032L378.743 172M378.797 172.032L378.851 172M378.797 172.032V214.737M378.797 172.032V171.969M378.743 172L342.25 150.547M378.743 172L378.797 171.969M342.25 150.547L378.797 129.264L415.741 150.547M342.25 150.547V193.252L378.797 214.737M415.741 150.547L378.851 172M415.741 150.547V193.252L378.797 214.737M378.851 172L378.797 171.969M305.305 172.032L305.251 172M305.305 172.032L305.359 172M305.305 172.032V214.737M305.305 172.032V171.969M305.251 172L268.758 150.547M305.251 172L305.305 171.969M268.758 150.547L305.305 129.264L342.249 150.547M268.758 150.547V193.252L305.305 214.737M342.249 150.547L305.359 172M342.249 150.547V193.252L305.305 214.737M305.359 172L305.305 171.969M342.051 107.897L341.997 107.865M342.051 107.897L342.105 107.865M342.051 107.897V150.602M342.051 107.897V107.834M341.997 107.865L305.504 86.4125M341.997 107.865L342.051 107.834M305.504 86.4125L342.051 65.1289L378.995 86.4125M305.504 86.4125V129.118L342.051 150.602M378.995 86.4125L342.105 107.865M378.995 86.4125V129.118L342.051 150.602M342.105 107.865L342.051 107.834M378.797 43.8226L378.743 43.7911M378.797 43.8226L378.851 43.7911M378.797 43.8226V86.5277M378.797 43.8226V43.7598M378.743 43.7911L342.25 22.3383M378.743 43.7911L378.797 43.7598M342.25 22.3383L378.797 1.05469L415.741 22.3383M342.25 22.3383V65.0433L378.797 86.5277M415.741 22.3383L378.851 43.7911M415.741 22.3383V65.0433L378.797 86.5277M378.851 43.7911L378.797 43.7598M231.812 172.032L231.759 172M231.812 172.032L231.867 172M231.812 172.032V214.737M231.812 172.032V171.969M231.759 172L195.266 150.547M231.759 172L231.812 171.969M195.266 150.547L231.812 129.264L268.757 150.547M195.266 150.547V193.252L231.812 214.737M268.757 150.547L231.867 172M268.757 150.547V193.252L231.812 214.737M231.867 172L231.812 171.969M342.051 236.063L341.997 236.031M342.051 236.063L342.105 236.031M342.051 236.063V278.768M342.051 236.063V236M341.997 236.031L305.504 214.579M341.997 236.031L342.051 236M305.504 214.579L342.051 193.295L378.995 214.579M305.504 214.579V257.284L342.051 278.768M378.995 214.579L342.105 236.031M378.995 214.579V257.284L342.051 278.768M342.105 236.031L342.051 236M268.559 236.063L268.505 236.031M268.559 236.063L268.613 236.031M268.559 236.063V278.768M268.559 236.063V236M268.505 236.031L232.012 214.579M268.505 236.031L268.559 236M232.012 214.579L268.559 193.295L305.503 214.579M232.012 214.579V257.284L268.559 278.768M305.503 214.579L268.613 236.031M305.503 214.579V257.284L268.559 278.768M268.613 236.031L268.559 236" stroke="white" stroke-opacity="0.35"/>
<path d="M111.312 300.241L111.259 300.209M111.312 300.241L111.367 300.209M111.312 300.241V342.946M111.312 300.241V300.178M111.259 300.209L74.7656 278.756M111.259 300.209L111.312 300.178M74.7656 278.756L111.312 257.473L148.257 278.756M74.7656 278.756V321.461L111.312 342.946M148.257 278.756L111.367 300.209M148.257 278.756V321.461L111.312 342.946M111.367 300.209L111.312 300.178M37.8203 300.241L37.7666 300.209M37.8203 300.241L37.8746 300.209M37.8203 300.241V342.946M37.8203 300.241V300.178M37.7666 300.209L1.27344 278.756M37.7666 300.209L37.8203 300.178M1.27344 278.756L37.8203 257.473L74.7645 278.756M1.27344 278.756V321.461L37.8203 342.946M74.7645 278.756L37.8746 300.209M74.7645 278.756V321.461L37.8203 342.946M37.8746 300.209L37.8203 300.178M74.5664 236.166L74.5127 236.135M74.5664 236.166L74.6207 236.135M74.5664 236.166V278.871M74.5664 236.166V236.104M74.5127 236.135L38.0195 214.682M74.5127 236.135L74.5664 236.104M38.0195 214.682L74.5664 193.398L111.511 214.682M38.0195 214.682V257.387L74.5664 278.871M111.511 214.682L74.6207 236.135M111.511 214.682V257.387L74.5664 278.871M74.6207 236.135L74.5664 236.104" stroke="white" stroke-opacity="0.35"/>
<path d="M183.418 150.508C183.119 150.674 182.908 150.984 182.908 151.35C182.908 151.882 183.341 152.314 183.872 152.314C184.404 152.314 184.837 151.882 184.837 151.35C184.837 150.951 184.604 150.618 184.26 150.463V146.939H174.896C175.117 141.298 179.783 136.765 185.479 136.765H209.683V114.346C209.683 113.913 209.683 113.481 209.695 113.06C210.116 112.949 210.426 112.595 210.426 112.14C210.426 111.985 210.382 111.841 210.315 111.708L220.977 101.047C221.342 101.024 221.63 100.736 221.63 100.359C221.63 99.9827 221.32 99.6724 220.943 99.6724C220.566 99.6724 220.256 99.9827 220.256 100.359C220.256 100.415 220.278 100.47 220.289 100.526L209.617 111.198C209.562 111.198 209.506 111.165 209.451 111.165C208.919 111.165 208.487 111.597 208.487 112.129C208.487 112.428 208.631 112.683 208.841 112.86C208.841 113.348 208.83 113.847 208.83 114.346V135.923H185.468C179.162 135.923 174.031 141.054 174.031 147.36V147.781H183.396V150.508H183.418Z" fill="white"/>
<path d="M296.437 164.195C296.437 163.818 296.127 163.508 295.75 163.508C295.528 163.508 295.351 163.618 295.218 163.774H282.296L277.453 161.358C277.497 161.18 277.53 161.003 277.53 160.815C277.53 159.651 276.577 158.698 275.414 158.698C274.25 158.698 273.297 159.651 273.297 160.815C273.297 161.978 274.25 162.931 275.414 162.931C276.09 162.931 276.688 162.61 277.076 162.111L282.096 164.616H295.218C295.218 164.616 295.284 164.693 295.318 164.727V173.836C295.163 173.958 295.052 174.147 295.052 174.368C295.052 174.745 295.362 175.055 295.739 175.055C296.116 175.055 296.426 174.745 296.426 174.368C296.426 174.147 296.315 173.969 296.16 173.836V164.727C296.315 164.605 296.426 164.416 296.426 164.195H296.437ZM276.666 160.959L276.067 160.659C276.001 160.349 275.735 160.116 275.403 160.116C275.026 160.116 274.715 160.427 274.715 160.803C274.715 161.18 275.026 161.491 275.403 161.491C275.513 161.491 275.602 161.468 275.691 161.424L276.278 161.723C276.045 161.945 275.735 162.078 275.403 162.078C274.704 162.078 274.128 161.513 274.128 160.803C274.128 160.094 274.693 159.529 275.403 159.529C276.112 159.529 276.677 160.094 276.677 160.803C276.677 160.859 276.677 160.903 276.666 160.959Z" fill="white"/>
<path d="M384.534 142.516C384.534 142.139 384.224 141.829 383.847 141.829C383.47 141.829 383.16 142.139 383.16 142.516C383.16 142.893 383.47 143.203 383.847 143.203C384.224 143.203 384.534 142.893 384.534 142.516Z" fill="white"/>
<path d="M381.144 142.516C381.144 142.139 380.833 141.829 380.457 141.829C380.08 141.829 379.77 142.139 379.77 142.516C379.77 142.893 380.08 143.203 380.457 143.203C380.833 143.203 381.144 142.893 381.144 142.516Z" fill="white"/>
<path d="M377.917 142.516C377.917 142.139 377.607 141.829 377.23 141.829C376.853 141.829 376.543 142.139 376.543 142.516C376.543 142.893 376.853 143.203 377.23 143.203C377.607 143.203 377.917 142.893 377.917 142.516Z" fill="white"/>
<path d="M322.605 231.742V300.21H326.429L333.378 293.372V229.426H376.178C376.3 229.581 376.488 229.692 376.71 229.692C377.087 229.692 377.397 229.382 377.397 229.005C377.397 228.628 377.087 228.318 376.71 228.318C376.488 228.318 376.311 228.429 376.178 228.584H332.535V293.028L326.085 299.378H323.459V232.108L329.732 225.835H383.326C383.448 225.99 383.637 226.101 383.858 226.101C384.235 226.101 384.545 225.791 384.545 225.414C384.545 225.037 384.235 224.727 383.858 224.727C383.637 224.727 383.448 224.838 383.326 224.993H329.377L322.605 231.764V231.742Z" fill="white"/>
<path d="M385.413 215.061H384.57V217.821H385.413V215.061Z" fill="white"/>
<path d="M380.502 215.061H379.66V217.821H380.502V215.061Z" fill="white"/>
<path d="M375.592 215.061H374.75V217.821H375.592V215.061Z" fill="white"/>
<path d="M370.682 215.061H369.84V217.821H370.682V215.061Z" fill="white"/>
<path d="M365.772 215.061H364.93V217.821H365.772V215.061Z" fill="white"/>
<path d="M360.854 215.061H360.012V217.821H360.854V215.061Z" fill="white"/>
<path d="M355.944 215.061H355.102V217.821H355.944V215.061Z" fill="white"/>
<path d="M351.034 215.061H350.191V217.821H351.034V215.061Z" fill="white"/>
<path d="M346.123 215.061H345.281V217.821H346.123V215.061Z" fill="white"/>
<path d="M341.217 215.061H340.375V217.821H341.217V215.061Z" fill="white"/>
<path d="M336.295 215.061H335.453V217.821H336.295V215.061Z" fill="white"/>
<path d="M331.385 215.061H330.543V217.821H331.385V215.061Z" fill="white"/>
<path d="M187.844 160.382C187.722 160.227 187.534 160.116 187.312 160.116C186.935 160.116 186.625 160.426 186.625 160.803C186.625 161.18 186.935 161.49 187.312 161.49C187.534 161.49 187.711 161.379 187.844 161.224H244.498V194.161C244.342 194.283 244.232 194.471 244.232 194.693C244.232 195.07 244.542 195.38 244.919 195.38C245.295 195.38 245.606 195.07 245.606 194.693C245.606 194.471 245.495 194.294 245.34 194.161V160.382H187.844Z" fill="white"/>
<path d="M286.987 40.1465C286.987 38.9829 286.034 38.0298 284.871 38.0298C283.707 38.0298 282.754 38.9829 282.754 40.1465C282.754 41.3102 283.707 42.2633 284.871 42.2633C286.034 42.2633 286.987 41.3102 286.987 40.1465ZM283.596 40.1465C283.596 39.4483 284.161 38.872 284.871 38.872C285.58 38.872 286.145 39.4373 286.145 40.1465C286.145 40.8558 285.58 41.421 284.871 41.421C284.161 41.421 283.596 40.8558 283.596 40.1465Z" fill="white"/>
<path d="M302.237 40.1465C302.237 38.9829 301.284 38.0298 300.121 38.0298C298.957 38.0298 298.004 38.9829 298.004 40.1465C298.004 41.3102 298.957 42.2633 300.121 42.2633C301.284 42.2633 302.237 41.3102 302.237 40.1465ZM298.846 40.1465C298.846 39.4483 299.411 38.872 300.121 38.872C300.83 38.872 301.395 39.4373 301.395 40.1465C301.395 40.8558 300.83 41.421 300.121 41.421C299.411 41.421 298.846 40.8558 298.846 40.1465Z" fill="white"/>
<path d="M292.066 40.1465C292.066 38.9829 291.112 38.0298 289.949 38.0298C288.785 38.0298 287.832 38.9829 287.832 40.1465C287.832 41.3102 288.785 42.2633 289.949 42.2633C291.112 42.2633 292.066 41.3102 292.066 40.1465ZM288.685 40.1465C288.685 39.4483 289.251 38.872 289.96 38.872C290.669 38.872 291.234 39.4373 291.234 40.1465C291.234 40.8558 290.669 41.421 289.96 41.421C289.251 41.421 288.685 40.8558 288.685 40.1465Z" fill="white"/>
<path d="M297.151 40.1465C297.151 38.9829 296.198 38.0298 295.035 38.0298C293.871 38.0298 292.918 38.9829 292.918 40.1465C292.918 41.3102 293.871 42.2633 295.035 42.2633C296.198 42.2633 297.151 41.3102 297.151 40.1465ZM293.76 40.1465C293.76 39.4483 294.325 38.872 295.035 38.872C295.744 38.872 296.309 39.4373 296.309 40.1465C296.309 40.8558 295.744 41.421 295.035 41.421C294.325 41.421 293.76 40.8558 293.76 40.1465Z" fill="white"/>
<path d="M327.937 265.42C326.773 265.42 325.82 266.373 325.82 267.537C325.82 268.701 326.773 269.654 327.937 269.654C329.101 269.654 330.054 268.701 330.054 267.537C330.054 266.373 329.101 265.42 327.937 265.42ZM327.937 268.812C327.239 268.812 326.663 268.246 326.663 267.537C326.663 266.828 327.228 266.263 327.937 266.263C328.646 266.263 329.212 266.839 329.212 267.537C329.212 268.235 328.646 268.812 327.937 268.812Z" fill="white"/>
<path d="M327.937 280.67C326.773 280.67 325.82 281.624 325.82 282.787C325.82 283.951 326.773 284.904 327.937 284.904C329.101 284.904 330.054 283.951 330.054 282.787C330.054 281.624 329.101 280.67 327.937 280.67ZM327.937 284.062C327.239 284.062 326.663 283.496 326.663 282.787C326.663 282.078 327.228 281.524 327.937 281.524C328.646 281.524 329.212 282.089 329.212 282.787C329.212 283.485 328.646 284.062 327.937 284.062Z" fill="white"/>
<path d="M327.937 270.506C326.773 270.506 325.82 271.459 325.82 272.623C325.82 273.787 326.773 274.74 327.937 274.74C329.101 274.74 330.054 273.787 330.054 272.623C330.054 271.459 329.101 270.506 327.937 270.506ZM327.937 273.898C327.239 273.898 326.663 273.332 326.663 272.634C326.663 271.936 327.228 271.36 327.937 271.36C328.646 271.36 329.212 271.925 329.212 272.634C329.212 273.343 328.646 273.898 327.937 273.898Z" fill="white"/>
<path d="M327.937 275.596C326.773 275.596 325.82 276.549 325.82 277.713C325.82 278.877 326.773 279.83 327.937 279.83C329.101 279.83 330.054 278.877 330.054 277.713C330.054 276.549 329.101 275.596 327.937 275.596ZM327.937 278.976C327.239 278.976 326.663 278.411 326.663 277.713C326.663 277.015 327.228 276.438 327.937 276.438C328.646 276.438 329.212 277.015 329.212 277.713C329.212 278.411 328.646 278.976 327.937 278.976Z" fill="white"/>
<path d="M300.131 296.13L303.777 292.484V269.122C303.932 269 304.043 268.812 304.043 268.59C304.043 268.213 303.732 267.903 303.356 267.903C302.979 267.903 302.668 268.213 302.668 268.59C302.668 268.812 302.779 268.989 302.934 269.122V288.106L300.275 285.446V280.592C301.205 280.371 301.904 279.539 301.904 278.531C301.904 277.367 300.951 276.414 299.787 276.414C298.623 276.414 297.67 277.367 297.67 278.531C297.67 279.573 298.435 280.437 299.421 280.614V285.79L302.923 289.303V292.129L299.776 295.288H286.776V274.054C287.74 273.854 288.472 273.001 288.472 271.981C288.472 270.818 287.519 269.864 286.355 269.864C285.191 269.864 284.238 270.818 284.238 271.981C284.238 273.001 284.97 273.854 285.934 274.054V296.13H300.131ZM299.421 279.107V279.75C298.9 279.595 298.512 279.118 298.512 278.542C298.512 277.844 299.089 277.268 299.787 277.268C300.485 277.268 301.061 277.833 301.061 278.542C301.061 279.074 300.74 279.528 300.275 279.717V279.03C300.396 278.908 300.474 278.73 300.474 278.542C300.474 278.165 300.164 277.855 299.787 277.855C299.41 277.855 299.1 278.165 299.1 278.542C299.1 278.786 299.233 278.996 299.421 279.118V279.107ZM285.081 271.981C285.081 271.283 285.646 270.707 286.355 270.707C287.064 270.707 287.63 271.272 287.63 271.981C287.63 272.535 287.275 273.001 286.787 273.178V272.513C286.942 272.391 287.053 272.203 287.053 271.981C287.053 271.604 286.743 271.294 286.366 271.294C285.989 271.294 285.679 271.604 285.679 271.981C285.679 272.203 285.779 272.391 285.945 272.513V273.178C285.446 273.001 285.103 272.535 285.103 271.981H285.081Z" fill="white"/>
<path d="M291.819 278.543C291.819 277.379 290.866 276.426 289.703 276.426C288.539 276.426 287.586 277.379 287.586 278.543C287.586 279.563 288.306 280.416 289.282 280.615V292.729H296.042C296.164 292.884 296.352 292.995 296.574 292.995C296.951 292.995 297.261 292.684 297.261 292.307C297.261 291.931 296.951 291.62 296.574 291.62C296.363 291.62 296.175 291.731 296.042 291.886H290.113V280.615C291.088 280.416 291.819 279.563 291.819 278.543ZM289.703 277.856C289.326 277.856 289.016 278.166 289.016 278.543C289.016 278.765 289.126 278.942 289.282 279.075V279.74C288.794 279.563 288.439 279.097 288.439 278.543C288.439 277.845 289.004 277.269 289.714 277.269C290.423 277.269 290.988 277.834 290.988 278.543C290.988 279.097 290.634 279.563 290.135 279.74V279.075C290.29 278.953 290.401 278.765 290.401 278.543C290.401 278.166 290.091 277.856 289.714 277.856H289.703Z" fill="white"/>
<path d="M190.636 164.881C190.858 164.881 191.035 164.77 191.168 164.615H241.117V200.023C240.153 200.222 239.421 201.076 239.421 202.095C239.421 203.259 240.374 204.212 241.538 204.212C242.702 204.212 243.655 203.259 243.655 202.095C243.655 201.076 242.923 200.211 241.959 200.023V163.772H191.168C191.046 163.617 190.858 163.506 190.636 163.506C190.26 163.506 189.949 163.817 189.949 164.193C189.949 164.57 190.26 164.881 190.636 164.881ZM241.959 201.563V200.899C242.447 201.076 242.801 201.541 242.801 202.095C242.801 202.794 242.236 203.37 241.527 203.37C240.818 203.37 240.252 202.805 240.252 202.095C240.252 201.541 240.607 201.076 241.095 200.899V201.563C240.94 201.685 240.829 201.874 240.829 202.095C240.829 202.472 241.139 202.783 241.516 202.783C241.893 202.783 242.203 202.472 242.203 202.095C242.203 201.874 242.092 201.696 241.937 201.563H241.959Z" fill="white"/>
<path d="M181.382 232.174C181.382 232.551 181.692 232.861 182.069 232.861C182.291 232.861 182.468 232.75 182.601 232.595H205.786V237.549C204.822 237.748 204.09 238.602 204.09 239.621C204.09 240.785 205.043 241.738 206.207 241.738C207.371 241.738 208.324 240.785 208.324 239.621C208.324 238.602 207.592 237.748 206.628 237.549V231.753H182.59C182.468 231.598 182.28 231.487 182.058 231.487C181.681 231.487 181.371 231.797 181.371 232.174H181.382ZM206.218 240.308C206.595 240.308 206.905 239.998 206.905 239.621C206.905 239.378 206.772 239.178 206.584 239.056H206.639V238.424C207.127 238.602 207.481 239.067 207.481 239.621C207.481 240.32 206.916 240.896 206.207 240.896C205.498 240.896 204.932 240.331 204.932 239.621C204.932 239.067 205.287 238.602 205.775 238.424V239.056H205.83C205.642 239.178 205.509 239.378 205.509 239.621C205.509 239.998 205.819 240.308 206.196 240.308H206.218Z" fill="white"/>
<path d="M387.661 161.235V160.636L387.417 160.393L380.635 153.61H346.401L344.351 155.66C344.019 155.439 343.62 155.306 343.187 155.306C342.168 155.306 341.314 156.037 341.115 157.001H333.568C333.446 156.846 333.257 156.735 333.036 156.735C333.003 156.735 332.98 156.746 332.947 156.757L329.8 153.61H278.898L274.066 151.194C274.11 151.017 274.144 150.839 274.144 150.662C274.144 149.498 273.191 148.545 272.027 148.545C270.863 148.545 269.91 149.498 269.91 150.662C269.91 151.826 270.863 152.779 272.027 152.779C272.703 152.779 273.301 152.446 273.689 151.959L278.699 154.463H329.445L332.349 157.367C332.349 157.367 332.338 157.411 332.338 157.422C332.338 157.799 332.648 158.11 333.025 158.11C333.246 158.11 333.424 157.999 333.557 157.844H341.104C341.303 158.808 342.157 159.539 343.176 159.539C344.351 159.539 345.293 158.586 345.293 157.422C345.293 156.99 345.16 156.591 344.938 156.259L346.734 154.463H365.862L363.513 156.813C363.191 156.625 362.825 156.503 362.426 156.503C361.263 156.503 360.31 157.456 360.31 158.619C360.31 159.783 361.263 160.736 362.426 160.736C363.59 160.736 364.543 159.783 364.543 158.619C364.543 158.154 364.388 157.733 364.133 157.389L367.059 154.463H376.025L373.653 156.835C373.332 156.625 372.944 156.503 372.534 156.503C371.37 156.503 370.417 157.456 370.417 158.619C370.417 159.783 371.37 160.736 372.534 160.736C373.697 160.736 374.65 159.783 374.65 158.619C374.65 158.176 374.506 157.755 374.274 157.411L377.222 154.463H380.258L383.217 157.434L378.263 162.387C377.942 162.199 377.587 162.088 377.199 162.088C376.025 162.088 375.083 163.041 375.083 164.205C375.083 165.369 376.036 166.322 377.199 166.322C378.363 166.322 379.316 165.369 379.316 164.205C379.316 163.739 379.161 163.307 378.895 162.953L383.827 158.032L386.786 160.991V177.338H363.867C363.668 176.373 362.814 175.642 361.795 175.642C360.631 175.642 359.678 176.595 359.678 177.759C359.678 178.922 360.631 179.875 361.795 179.875C362.814 179.875 363.668 179.144 363.867 178.18H387.595L387.628 161.235H387.661ZM272.027 151.926C271.329 151.926 270.752 151.36 270.752 150.651C270.752 149.942 271.318 149.377 272.027 149.377C272.736 149.377 273.301 149.942 273.301 150.651C273.301 151.36 272.736 151.926 272.027 151.926ZM343.187 156.148C343.387 156.148 343.564 156.192 343.73 156.281L343.265 156.746C343.265 156.746 343.221 156.735 343.187 156.735C342.966 156.735 342.788 156.846 342.655 157.001H341.99C342.168 156.514 342.633 156.159 343.187 156.159V156.148ZM343.187 158.686C342.633 158.686 342.168 158.331 341.99 157.844H342.655C342.777 157.999 342.966 158.11 343.187 158.11C343.564 158.11 343.874 157.799 343.874 157.422C343.874 157.4 343.874 157.378 343.863 157.345L344.329 156.879C344.406 157.046 344.451 157.223 344.451 157.422C344.451 158.121 343.886 158.697 343.176 158.697L343.187 158.686ZM362.449 159.883C361.75 159.883 361.174 159.318 361.174 158.608C361.174 157.899 361.75 157.334 362.449 157.334C363.147 157.334 363.723 157.899 363.723 158.608C363.723 159.318 363.158 159.883 362.449 159.883ZM372.556 159.883C371.858 159.883 371.281 159.318 371.281 158.608C371.281 157.899 371.847 157.334 372.556 157.334C373.265 157.334 373.83 157.899 373.83 158.608C373.83 159.318 373.265 159.883 372.556 159.883ZM377.233 165.468C376.534 165.468 375.958 164.903 375.958 164.194C375.958 163.485 376.523 162.919 377.233 162.919C377.388 162.919 377.532 162.953 377.665 162.997L377.144 163.518C376.8 163.562 376.534 163.839 376.534 164.194C376.534 164.571 376.845 164.881 377.222 164.881C377.598 164.881 377.909 164.571 377.909 164.194C377.909 164.127 377.886 164.061 377.864 163.994L378.308 163.551C378.418 163.739 378.485 163.961 378.485 164.194C378.485 164.892 377.92 165.468 377.21 165.468H377.233ZM361.828 179.022C361.13 179.022 360.554 178.457 360.554 177.748C360.554 177.038 361.13 176.473 361.828 176.473C362.526 176.473 363.102 177.049 363.102 177.748C363.102 178.446 362.537 179.022 361.828 179.022Z" fill="white"/>
<path d="M258.441 203.403C258.141 203.514 257.92 203.758 257.842 204.079H254.351C254.185 203.802 253.886 203.603 253.542 203.603C253.01 203.603 252.578 204.035 252.578 204.567C252.578 204.966 252.811 205.298 253.154 205.453V233.37L259.937 240.141V260.123L256.546 263.514V273.899H256.523L256.546 273.932V301.461H250.561V290.921L254.107 287.375V260.611L257.41 257.308V243.2L255.326 241.117C255.537 240.784 255.659 240.396 255.659 239.975C255.659 238.811 254.706 237.858 253.542 237.858C252.379 237.858 251.425 238.811 251.425 239.975C251.425 241.139 252.379 242.092 253.542 242.092C253.985 242.092 254.396 241.959 254.739 241.726L256.568 243.555V256.965L253.265 260.267V287.031L249.719 290.578V302.314H257.399V274.785L263.317 280.703V289.702C263.151 289.824 263.029 290.023 263.029 290.245C263.029 290.622 263.339 290.932 263.716 290.932C264.093 290.932 264.403 290.622 264.403 290.245C264.403 290.035 264.303 289.857 264.159 289.735V280.36L257.399 273.599V263.891L260.79 260.5V239.82L254.008 233.049V205.453C254.207 205.342 254.373 205.176 254.451 204.966H258.053C258.23 205.176 258.485 205.32 258.784 205.32C259.316 205.32 259.748 204.888 259.748 204.356C259.748 204.024 259.571 203.736 259.305 203.558C259.394 196.222 262.619 189.417 268.238 184.696L269.08 184.053V160.436H265.799C265.666 160.281 265.489 160.17 265.267 160.17C264.891 160.17 264.58 160.481 264.58 160.858C264.58 161.234 264.891 161.545 265.267 161.545C265.489 161.545 265.666 161.434 265.799 161.279H268.238V183.599C262.12 188.464 258.574 195.679 258.463 203.458L258.441 203.403ZM254.684 240.485L254.207 240.008C254.207 240.008 254.207 239.986 254.207 239.975C254.207 239.598 253.897 239.288 253.52 239.288C253.143 239.288 252.833 239.598 252.833 239.975C252.833 240.352 253.143 240.662 253.52 240.662C253.564 240.662 253.598 240.651 253.631 240.64L254.096 241.106C253.919 241.194 253.731 241.25 253.52 241.25C252.822 241.25 252.246 240.673 252.246 239.975C252.246 239.277 252.811 238.712 253.52 238.712C254.229 238.712 254.795 239.277 254.795 239.975C254.795 240.164 254.75 240.33 254.684 240.496V240.485Z" fill="white"/>
<path d="M302.525 181.881C302.303 181.881 302.126 181.992 301.993 182.147H285.158V184.885C284.394 185.04 283.784 185.649 283.629 186.414C274.342 186.78 266.895 194.427 266.895 203.802C266.895 210.973 271.405 217.456 278.143 220.027L275.672 255.269H292.983L290.511 220.027C297.249 217.456 301.738 210.973 301.738 203.802C301.738 199.358 300.064 195.147 297.072 191.944C297.227 191.667 297.316 191.346 297.316 191.013C297.316 189.927 296.44 189.052 295.354 189.052C294.268 189.052 293.393 189.927 293.393 191.013C293.393 192.099 294.268 192.975 295.354 192.975C295.786 192.975 296.185 192.831 296.507 192.598C299.311 195.635 300.884 199.613 300.884 203.814C300.884 210.74 296.474 216.991 289.913 219.351L289.614 219.462L292.074 254.427H276.581L279.041 219.462L278.742 219.351C272.17 216.979 267.748 210.74 267.748 203.814C267.748 194.903 274.83 187.633 283.662 187.278C283.873 188.143 284.638 188.775 285.557 188.775C286.632 188.775 287.519 187.899 287.519 186.813C287.519 185.893 286.876 185.117 286.012 184.907V183.001H302.004C302.126 183.156 302.314 183.267 302.536 183.267C302.558 183.267 302.58 183.256 302.613 183.256L305.75 188.353H322.44V191.013L314.527 193.651C314.161 193.019 313.485 192.587 312.698 192.587C311.535 192.587 310.582 193.54 310.582 194.704C310.582 195.867 311.535 196.82 312.698 196.82C313.862 196.82 314.815 195.867 314.815 194.704C314.815 194.615 314.804 194.538 314.793 194.449L323.293 191.612V188.342H327.571C327.77 189.307 328.624 190.038 329.643 190.038C330.807 190.038 331.76 189.085 331.76 187.921C331.76 186.758 330.807 185.805 329.643 185.805C328.624 185.805 327.77 186.536 327.571 187.5H306.104L303.212 182.657C303.212 182.657 303.223 182.613 303.223 182.58C303.223 182.203 302.912 181.892 302.536 181.892L302.525 181.881ZM294.257 191.013C294.257 190.404 294.756 189.905 295.365 189.905C295.975 189.905 296.474 190.404 296.474 191.013C296.474 191.113 296.44 191.191 296.418 191.279C296.285 191.157 296.163 191.035 296.03 190.914C295.986 190.581 295.709 190.326 295.365 190.326C294.989 190.326 294.678 190.636 294.678 191.013C294.678 191.39 294.989 191.7 295.365 191.7C295.443 191.7 295.521 191.678 295.598 191.656C295.709 191.756 295.809 191.867 295.908 191.966C295.742 192.055 295.565 192.133 295.365 192.133C294.756 192.133 294.257 191.634 294.257 191.024V191.013ZM285.158 185.771V186.259C285.103 186.303 285.048 186.348 285.014 186.403C284.859 186.403 284.693 186.392 284.538 186.381C284.649 186.093 284.881 185.882 285.169 185.771H285.158ZM286.666 186.802C286.666 187.411 286.167 187.91 285.557 187.91C285.092 187.91 284.704 187.633 284.538 187.234C284.704 187.234 284.881 187.234 285.048 187.256C285.169 187.4 285.358 187.5 285.557 187.5C285.934 187.5 286.244 187.19 286.244 186.813C286.244 186.602 286.145 186.425 286.001 186.303V185.805C286.389 185.982 286.666 186.37 286.666 186.813V186.802ZM312.687 195.956C311.989 195.956 311.413 195.391 311.413 194.682C311.413 193.972 311.978 193.407 312.687 193.407C313.097 193.407 313.452 193.607 313.685 193.906L313.053 194.116C312.942 194.05 312.82 193.994 312.687 193.994C312.31 193.994 312 194.305 312 194.682C312 195.058 312.31 195.369 312.687 195.369C312.986 195.369 313.23 195.18 313.33 194.914L313.951 194.704C313.94 195.391 313.374 195.945 312.687 195.945V195.956ZM329.632 186.647C330.33 186.647 330.907 187.223 330.907 187.921C330.907 188.619 330.33 189.196 329.632 189.196C328.934 189.196 328.358 188.631 328.358 187.921C328.358 187.212 328.923 186.647 329.632 186.647Z" fill="white"/>
<path d="M204.365 190.88H186.223V191.722H204.365C204.487 191.877 204.675 191.988 204.897 191.988C205.273 191.988 205.584 191.678 205.584 191.301C205.584 190.924 205.273 190.614 204.897 190.614C204.675 190.614 204.498 190.725 204.365 190.88Z" fill="white"/>
<path d="M211.524 188.597C211.901 188.597 212.212 188.287 212.212 187.91C212.212 187.533 211.901 187.223 211.524 187.223C211.303 187.223 211.126 187.334 210.993 187.489H182.832V188.331H210.993C211.114 188.487 211.303 188.597 211.524 188.597Z" fill="white"/>
<path d="M228.362 205.011L231.399 201.953H234.723L238.358 198.262V167.165H194.771C194.649 167.01 194.461 166.899 194.239 166.899C193.862 166.899 193.552 167.209 193.552 167.586C193.552 167.963 193.862 168.273 194.239 168.273C194.461 168.273 194.638 168.162 194.771 168.007H237.516V186.892L234.978 184.354V179.987C235.943 179.788 236.674 178.934 236.674 177.915C236.674 176.751 235.721 175.798 234.557 175.798C233.394 175.798 232.44 176.751 232.44 177.915C232.44 178.934 233.172 179.799 234.136 179.987V184.697L237.527 188.089V197.908L234.38 201.099H217.745L213.8 205.1V251.857L180.663 251.768L177.505 252.799C177.438 252.744 177.361 252.688 177.283 252.644V245.44H200.024C200.157 245.806 200.512 246.072 200.922 246.072C201.454 246.072 201.886 245.64 201.886 245.108C201.886 244.576 201.454 244.144 200.922 244.144C200.578 244.144 200.29 244.332 200.124 244.598H176.43V252.644C176.108 252.799 175.887 253.12 175.887 253.508C175.887 254.04 176.319 254.472 176.851 254.472C177.383 254.472 177.771 254.073 177.804 253.564L180.73 252.6L214.653 252.688V205.422L218.111 201.919H230.224L228.03 204.136H217.402V210.763C217.246 210.885 217.136 211.074 217.136 211.295C217.136 211.672 217.446 211.982 217.823 211.982C218.2 211.982 218.51 211.672 218.51 211.295C218.51 211.074 218.399 210.885 218.244 210.763V204.978H228.373L228.362 205.011ZM234.125 179.112C233.637 178.934 233.283 178.469 233.283 177.915C233.283 177.217 233.848 176.64 234.557 176.64C235.266 176.64 235.832 177.206 235.832 177.915C235.832 178.469 235.477 178.934 234.989 179.112V177.76H234.147V179.112H234.125Z" fill="white"/>
<path d="M346.678 160.382H313.076C312.876 159.417 312.023 158.686 311.003 158.686C309.84 158.686 308.887 159.639 308.887 160.803C308.887 161.966 309.84 162.92 311.003 162.92C312.023 162.92 312.876 162.188 313.076 161.224H346.478L352.928 164.449V176.717L346.755 170.544H329.81L323.039 163.773H316.467C316.268 162.809 315.414 162.077 314.395 162.077C313.231 162.077 312.278 163.03 312.278 164.194C312.278 165.358 313.231 166.311 314.395 166.311C315.414 166.311 316.279 165.579 316.467 164.615H322.684L329.456 171.398H346.401L352.928 177.925V183.5L351.731 182.303C351.953 181.97 352.086 181.571 352.086 181.139C352.086 179.975 351.133 179.022 349.969 179.022C348.806 179.022 347.853 179.975 347.853 181.139C347.853 182.303 348.806 183.256 349.969 183.256C350.402 183.256 350.801 183.123 351.133 182.901L352.928 184.697V188.088L356.563 191.723H370.472L373.863 188.332H383.328C383.494 188.62 383.793 188.819 384.148 188.819C384.68 188.819 385.112 188.387 385.112 187.855C385.112 187.323 384.68 186.891 384.148 186.891C383.738 186.891 383.405 187.135 383.25 187.489H373.508L370.117 190.881H356.918L353.782 187.744V163.939L346.678 160.393V160.382ZM310.992 162.077C310.294 162.077 309.718 161.512 309.718 160.803C309.718 160.094 310.283 159.528 310.992 159.528C311.702 159.528 312.267 160.094 312.267 160.803C312.267 161.512 311.702 162.077 310.992 162.077ZM314.384 165.468C313.685 165.468 313.109 164.903 313.109 164.194C313.109 163.485 313.674 162.92 314.384 162.92C315.093 162.92 315.658 163.485 315.658 164.194C315.658 164.903 315.093 165.468 314.384 165.468ZM351.111 181.682L350.645 181.217C350.645 181.217 350.656 181.172 350.656 181.139C350.656 180.762 350.346 180.452 349.969 180.452C349.593 180.452 349.282 180.762 349.282 181.139C349.282 181.516 349.593 181.826 349.969 181.826C349.992 181.826 350.014 181.815 350.047 181.815L350.512 182.281C350.346 182.358 350.169 182.402 349.969 182.402C349.271 182.402 348.695 181.837 348.695 181.128C348.695 180.419 349.26 179.854 349.969 179.854C350.679 179.854 351.244 180.419 351.244 181.128C351.244 181.327 351.2 181.505 351.111 181.671V181.682Z" fill="white"/>
<path d="M243.877 273.155H243.888L249.208 267.847C249.54 268.069 249.939 268.202 250.371 268.202C251.535 268.202 252.488 267.248 252.488 266.085C252.488 264.921 251.535 263.968 250.371 263.968C249.208 263.968 248.255 264.921 248.255 266.085C248.255 266.517 248.388 266.916 248.609 267.249L243.877 271.992V263.004L247.191 259.69V249.129L250.172 246.148C250.172 246.148 250.216 246.159 250.25 246.159C250.626 246.159 250.937 245.848 250.937 245.471C250.937 245.095 250.626 244.784 250.25 244.784C249.873 244.784 249.562 245.095 249.562 245.471C249.562 245.494 249.574 245.516 249.574 245.549L247.191 247.932V241.404C248.155 241.205 248.886 240.351 248.886 239.332C248.886 238.168 247.933 237.215 246.77 237.215C245.606 237.215 244.653 238.168 244.653 239.332C244.653 240.351 245.384 241.205 246.349 241.404V259.336L243.035 262.649V279.605L240.408 282.609L237.394 279.594V263.004L243.999 256.41V247.522C244.908 247.289 245.584 246.469 245.584 245.483C245.584 244.319 244.631 243.366 243.467 243.366C242.303 243.366 241.35 244.319 241.35 245.483C241.35 246.546 242.137 247.411 243.146 247.566V256.055L237.394 261.807V241.936H233.87V239.542H240.652V235.409H230.49V232.97H243.899V228.67H226.677V226.166H247.435V222.043H230.49V219.106H244.043V215.039H233.46V212.357H240.663V208.201H238.347C238.181 207.292 237.383 206.594 236.419 206.594C235.333 206.594 234.457 207.47 234.457 208.556C234.457 209.642 235.333 210.517 236.419 210.517C237.327 210.517 238.081 209.897 238.303 209.055H239.799V211.515H232.595V215.892H243.19V218.264H229.636V222.897H246.581V225.335H225.824V229.535H243.046V232.15H229.636V236.284H239.799V238.722H233.016V242.823H236.541V255.146L234.158 252.764C234.158 252.764 234.169 252.719 234.169 252.686C234.169 252.309 233.859 251.999 233.482 251.999C233.105 251.999 232.795 252.309 232.795 252.686C232.795 253.063 233.105 253.373 233.482 253.373C233.515 253.373 233.526 253.362 233.559 253.362L236.541 256.343V279.982L243.035 286.477V292.195L237.571 286.731C237.616 286.643 237.649 286.543 237.649 286.432C237.649 286.055 237.339 285.745 236.962 285.745C236.585 285.745 236.275 286.055 236.275 286.432C236.275 286.72 236.452 286.964 236.707 287.075L243.024 293.392V299.077L233.703 289.934V269.93L230.013 266.24V259.502L230.057 259.458L230.013 259.413V251.744C230.977 251.545 231.709 250.691 231.709 249.672C231.709 248.508 230.756 247.555 229.592 247.555C228.428 247.555 227.475 248.508 227.475 249.672C227.475 250.691 228.207 251.545 229.171 251.744V258.571L226.832 256.233C226.832 256.233 226.843 256.188 226.843 256.155C226.843 255.778 226.533 255.468 226.156 255.468C225.78 255.468 225.469 255.778 225.469 256.155C225.469 256.532 225.78 256.842 226.156 256.842C226.178 256.842 226.201 256.831 226.234 256.831L229.171 259.768V266.584L232.861 270.274V282.232L226.899 276.27C226.899 276.27 226.91 276.225 226.91 276.192C226.91 275.815 226.6 275.505 226.223 275.505C225.846 275.505 225.536 275.815 225.536 276.192C225.536 276.569 225.846 276.879 226.223 276.879C226.245 276.879 226.267 276.879 226.3 276.868L232.861 283.429V290.278L239.644 296.938L236.962 299.487L223.541 286.244V215.638L229.714 209.487C229.78 209.498 229.836 209.52 229.891 209.52C230.423 209.52 230.855 209.088 230.855 208.556C230.855 208.024 230.423 207.592 229.891 207.592C229.359 207.592 228.927 208.024 228.927 208.556C228.927 208.711 228.971 208.844 229.027 208.977L222.688 215.283V286.598L236.94 300.662L240.242 297.526L243.024 300.252V304.341C242.702 304.497 242.481 304.818 242.481 305.206C242.481 305.738 242.913 306.17 243.445 306.17C243.977 306.17 244.409 305.738 244.409 305.206C244.409 304.829 244.187 304.497 243.866 304.341V293.06H243.877L243.866 293.026V286.1L240.985 283.218L243.866 279.938V273.167L243.877 273.155ZM250.383 264.81C251.081 264.81 251.657 265.376 251.657 266.085C251.657 266.794 251.092 267.359 250.383 267.359C250.183 267.359 250.006 267.315 249.84 267.226L250.305 266.761C250.305 266.761 250.349 266.772 250.383 266.772C250.759 266.772 251.07 266.462 251.07 266.085C251.07 265.708 250.759 265.398 250.383 265.398C250.006 265.398 249.695 265.708 249.695 266.085C249.695 266.107 249.707 266.129 249.707 266.162L249.241 266.628C249.163 266.462 249.108 266.273 249.108 266.085C249.108 265.387 249.673 264.81 250.383 264.81ZM245.495 239.332C245.495 238.634 246.06 238.057 246.77 238.057C247.479 238.057 248.044 238.623 248.044 239.332C248.044 239.886 247.69 240.351 247.202 240.529V239.864C247.357 239.742 247.468 239.553 247.468 239.332C247.468 238.955 247.158 238.645 246.781 238.645C246.404 238.645 246.094 238.955 246.094 239.332C246.094 239.553 246.204 239.731 246.36 239.864V240.529C245.872 240.351 245.517 239.886 245.517 239.332H245.495ZM242.182 245.471C242.182 244.773 242.758 244.197 243.456 244.197C244.154 244.197 244.73 244.773 244.73 245.471C244.73 245.981 244.42 246.425 243.988 246.624V245.893C244.088 245.782 244.154 245.638 244.154 245.471C244.154 245.095 243.844 244.784 243.467 244.784C243.09 244.784 242.78 245.095 242.78 245.471C242.78 245.737 242.935 245.959 243.146 246.07V246.702C242.603 246.558 242.193 246.07 242.193 245.471H242.182ZM236.396 209.653C235.787 209.653 235.288 209.154 235.288 208.545C235.288 207.935 235.787 207.437 236.396 207.437C236.884 207.437 237.283 207.758 237.438 208.19H236.973C236.851 207.991 236.64 207.858 236.396 207.858C236.02 207.858 235.709 208.168 235.709 208.545C235.709 208.922 236.02 209.232 236.396 209.232C236.585 209.232 236.751 209.154 236.873 209.032H237.383C237.194 209.398 236.829 209.653 236.396 209.653ZM229.171 250.182V250.846C228.683 250.669 228.328 250.204 228.328 249.65C228.328 248.951 228.894 248.375 229.603 248.375C230.312 248.375 230.877 248.94 230.877 249.65C230.877 250.204 230.523 250.669 230.035 250.846V250.182C230.19 250.06 230.301 249.871 230.301 249.65C230.301 249.273 229.991 248.962 229.614 248.962C229.237 248.962 228.927 249.273 228.927 249.65C228.927 249.871 229.038 250.049 229.193 250.182H229.171Z" fill="white"/>
<path d="M179.8 205.898C178.835 206.097 178.104 206.951 178.104 207.97C178.104 209.145 179.057 210.087 180.221 210.087C181.384 210.087 182.337 209.134 182.337 207.97C182.337 206.951 181.606 206.097 180.642 205.898V201.332H186.626V202.307C185.662 202.507 184.931 203.36 184.931 204.38C184.931 205.543 185.884 206.496 187.048 206.496C188.211 206.496 189.164 205.543 189.164 204.38C189.164 203.36 188.433 202.507 187.469 202.307V201.332H193.342V205.477C192.378 205.676 191.647 206.53 191.647 207.549C191.647 208.713 192.6 209.666 193.764 209.666C194.927 209.666 195.88 208.713 195.88 207.549C195.88 206.53 195.149 205.676 194.185 205.477V201.332H200.202V202.307C199.238 202.507 198.507 203.36 198.507 204.38C198.507 205.543 199.46 206.496 200.624 206.496C201.787 206.496 202.74 205.543 202.74 204.38C202.74 203.36 202.009 202.507 201.045 202.307V201.332H203.605C203.727 201.487 203.915 201.598 204.137 201.598C204.513 201.598 204.824 201.288 204.824 200.911C204.824 200.534 204.513 200.224 204.137 200.224C203.915 200.224 203.738 200.335 203.605 200.49H180.376L174.037 194.55L178.525 189.895L183.412 194.993H208.625C208.825 195.946 209.678 196.666 210.697 196.666C211.861 196.666 212.814 195.713 212.814 194.55C212.814 193.386 211.861 192.433 210.697 192.433C209.667 192.433 208.813 193.175 208.625 194.14H183.778L175.677 185.706C175.777 185.551 175.854 185.373 175.854 185.174C175.854 184.642 175.422 184.21 174.89 184.21V181.539H189.386C189.508 182.592 190.394 183.412 191.481 183.412C192.644 183.412 193.597 182.459 193.597 181.295C193.597 180.131 192.644 179.178 191.481 179.178C190.527 179.178 189.718 179.821 189.464 180.697H174.092V181.295H174.059V184.731C173.992 184.864 173.937 185.008 173.937 185.174C173.937 185.706 174.369 186.138 174.901 186.138C174.912 186.138 174.923 186.138 174.934 186.138L177.949 189.285L172.84 194.583L179.8 201.099V205.909V205.898ZM201.067 203.183C201.554 203.36 201.909 203.826 201.909 204.38C201.909 205.078 201.344 205.654 200.635 205.654C199.925 205.654 199.36 205.089 199.36 204.38C199.36 203.826 199.715 203.36 200.202 203.183V204.291H201.045V203.183H201.067ZM194.196 206.363C194.683 206.541 195.038 207.006 195.038 207.56C195.038 208.259 194.473 208.835 193.764 208.835C193.054 208.835 192.489 208.259 192.489 207.56C192.489 207.006 192.844 206.541 193.331 206.363V207.682H194.174V206.363H194.196ZM187.48 203.183C187.967 203.36 188.322 203.826 188.322 204.38C188.322 205.078 187.757 205.654 187.048 205.654C186.338 205.654 185.773 205.089 185.773 204.38C185.773 203.826 186.128 203.36 186.615 203.183V204.291H187.458V203.183H187.48ZM210.72 193.264C211.418 193.264 211.994 193.829 211.994 194.538C211.994 195.248 211.429 195.813 210.72 195.813C210.177 195.813 209.711 195.469 209.534 194.982H211.141V194.128H209.523C209.689 193.63 210.166 193.264 210.72 193.264ZM190.372 180.685C190.583 180.286 191.004 180.02 191.481 180.02C192.179 180.02 192.755 180.586 192.755 181.295C192.755 182.004 192.19 182.569 191.481 182.569C190.86 182.569 190.35 182.126 190.239 181.55H191.481V180.708H190.372V180.685ZM180.642 207.682V206.785C181.13 206.962 181.484 207.427 181.484 207.982C181.484 208.68 180.919 209.256 180.21 209.256C179.5 209.256 178.935 208.68 178.935 207.982C178.935 207.427 179.29 206.962 179.777 206.785V207.682H180.62H180.642Z" fill="white"/>
<path d="M263.735 297.781C263.358 297.781 263.048 298.091 263.048 298.468C263.048 298.69 263.159 298.867 263.314 299V307.246H185.493C181.969 307.246 179.697 305.65 178.556 303.921C178.633 303.821 178.688 303.71 178.733 303.577H218.463V294.257H178.6L184.219 290.223H188.641C188.84 291.187 189.693 291.918 190.713 291.918C191.877 291.918 192.83 290.965 192.83 289.802C192.83 288.638 191.877 287.685 190.713 287.685C189.693 287.685 188.84 288.416 188.641 289.381H183.942L177.148 294.268H175.242C175.153 294.157 175.042 294.068 174.909 294.002V286.887C175.098 286.798 175.253 286.643 175.353 286.455L217.422 286.499C217.544 286.632 217.721 286.721 217.92 286.721C218.297 286.721 218.607 286.41 218.607 286.034C218.607 285.657 218.297 285.347 217.92 285.347C217.688 285.347 217.488 285.468 217.366 285.657L175.375 285.613C175.22 285.28 174.887 285.047 174.499 285.047C173.967 285.047 173.535 285.48 173.535 286.012C173.535 286.388 173.757 286.699 174.067 286.865V294.024C173.757 294.179 173.535 294.501 173.535 294.877C173.535 295.409 173.967 295.842 174.499 295.842C174.954 295.842 175.308 295.531 175.419 295.11H217.61V302.735H178.567C178.389 302.502 178.123 302.347 177.813 302.347C177.281 302.347 176.849 302.779 176.849 303.311C176.849 303.843 177.259 304.253 177.78 304.275C179.032 306.248 181.57 308.088 185.493 308.088H264.167V299C264.323 298.878 264.433 298.69 264.433 298.468C264.433 298.091 264.123 297.781 263.746 297.781H263.735ZM190.702 289.104C190.48 289.104 190.303 289.214 190.17 289.37H189.505C189.682 288.882 190.148 288.516 190.702 288.516C191.4 288.516 191.976 289.092 191.976 289.791C191.976 290.489 191.4 291.065 190.702 291.065C190.148 291.065 189.682 290.71 189.505 290.223H190.17C190.292 290.378 190.48 290.489 190.702 290.489C191.079 290.489 191.389 290.179 191.389 289.802C191.389 289.425 191.079 289.115 190.702 289.115V289.104Z" fill="white"/>
<path d="M365.241 306.282C365.02 306.282 364.842 306.393 364.709 306.548H330.221L328.592 305.041L331.329 302.292H379.227V281.768C379.471 281.657 379.637 281.424 379.637 281.147C379.637 280.77 379.327 280.46 378.95 280.46C378.573 280.46 378.263 280.77 378.263 281.147C378.263 281.28 378.318 281.402 378.385 281.513V301.45H371.78V288.207C371.935 288.085 372.046 287.896 372.046 287.675C372.046 287.298 371.736 286.987 371.359 286.987C370.982 286.987 370.672 287.298 370.672 287.675C370.672 287.896 370.782 288.074 370.938 288.207V301.45H330.985L327.805 304.631H317.443V268.158H309.851L306.216 271.793V298.447H283.342V267.438C283.497 267.316 283.608 267.128 283.608 266.906C283.608 266.529 283.298 266.219 282.921 266.219C282.544 266.219 282.234 266.529 282.234 266.906C282.234 267.128 282.344 267.305 282.5 267.438V277.512L280.05 275.063V267.427C280.206 267.305 280.316 267.117 280.316 266.895C280.316 266.518 280.006 266.208 279.629 266.208C279.252 266.208 278.942 266.518 278.942 266.895C278.942 267.117 279.053 267.294 279.208 267.427V275.406L282.5 278.698V288.085L276.471 282.056V267.416C276.626 267.294 276.737 267.106 276.737 266.884C276.737 266.507 276.426 266.197 276.05 266.197C275.673 266.197 275.363 266.507 275.363 266.884C275.363 267.106 275.473 267.283 275.628 267.416V282.399L282.511 289.282V299.267H307.08V272.126L310.217 268.99H316.611V304.62H272.913V277.856L267.494 272.436V263.725H302.104L300.464 240.353H307.657L310.04 245.639V256.943C309.884 257.076 309.774 257.253 309.774 257.475C309.774 257.852 310.084 258.162 310.461 258.162C310.837 258.162 311.148 257.852 311.148 257.475C311.148 257.253 311.037 257.076 310.882 256.943V245.539L308.189 239.499H300.409L300.021 233.958H312.367L315.459 240.718V260.534C315.304 260.667 315.193 260.844 315.193 261.066C315.193 261.442 315.503 261.753 315.88 261.753C316.257 261.753 316.567 261.442 316.567 261.066C316.567 260.844 316.456 260.667 316.301 260.534V244.874L318.839 246.969V253.541C318.684 253.674 318.573 253.851 318.573 254.073C318.573 254.449 318.883 254.76 319.26 254.76C319.637 254.76 319.947 254.449 319.947 254.073C319.947 253.851 319.836 253.674 319.681 253.541V246.57L316.29 243.777V240.619L312.888 233.105H299.932L299.367 225.025H316.345V216.946C317.221 216.747 317.886 215.971 317.886 215.04C317.886 213.965 317.01 213.079 315.924 213.079C314.838 213.079 313.963 213.954 313.963 215.04C313.963 215.971 314.617 216.758 315.503 216.946V224.172H298.469L301.185 262.861H266.641V272.769L272.06 278.188V286.777L268.669 290.179V305.728C267.793 305.927 267.139 306.703 267.139 307.634C267.139 308.72 268.015 309.596 269.101 309.596C270.187 309.596 271.063 308.72 271.063 307.634C271.063 306.703 270.409 305.916 269.522 305.728V290.534L272.071 287.985V305.462H327.849L329.921 307.379H364.742C364.864 307.534 365.053 307.645 365.274 307.645C365.651 307.645 365.962 307.335 365.962 306.958C365.962 306.581 365.651 306.271 365.274 306.271L365.241 306.282ZM314.794 215.062C314.794 214.453 315.293 213.954 315.902 213.954C316.512 213.954 317.01 214.453 317.01 215.062C317.01 215.528 316.722 215.927 316.323 216.093V215.594C316.478 215.472 316.589 215.284 316.589 215.062C316.589 214.686 316.279 214.375 315.902 214.375C315.525 214.375 315.215 214.686 315.215 215.062C315.215 215.284 315.326 215.461 315.481 215.594V216.093C315.082 215.927 314.794 215.528 314.794 215.062ZM270.187 307.656C270.187 308.266 269.688 308.764 269.079 308.764C268.469 308.764 267.971 308.266 267.971 307.656C267.971 307.191 268.259 306.803 268.658 306.626V307.124C268.502 307.246 268.392 307.435 268.392 307.656C268.392 308.033 268.702 308.343 269.079 308.343C269.456 308.343 269.766 308.033 269.766 307.656C269.766 307.435 269.655 307.246 269.5 307.124V306.626C269.899 306.792 270.187 307.191 270.187 307.656Z" fill="white"/>
<path d="M193.332 227.131C193.711 227.131 194.019 226.823 194.019 226.443C194.019 226.064 193.711 225.756 193.332 225.756C192.952 225.756 192.645 226.064 192.645 226.443C192.645 226.823 192.952 227.131 193.332 227.131Z" fill="white"/>
<path d="M190.624 226.443C190.624 226.067 190.314 225.756 189.937 225.756C189.56 225.756 189.25 226.067 189.25 226.443C189.25 226.82 189.56 227.131 189.937 227.131C190.314 227.131 190.624 226.82 190.624 226.443Z" fill="white"/>
<path d="M187.234 226.443C187.234 226.067 186.923 225.756 186.546 225.756C186.17 225.756 185.859 226.067 185.859 226.443C185.859 226.82 186.17 227.131 186.546 227.131C186.923 227.131 187.234 226.82 187.234 226.443Z" fill="white"/>
<path d="M183.168 227.131C183.544 227.131 183.855 226.82 183.855 226.443C183.855 226.067 183.544 225.756 183.168 225.756C182.791 225.756 182.48 226.067 182.48 226.443C182.48 226.82 182.791 227.131 183.168 227.131Z" fill="white"/>
<path d="M179.933 227.131C180.313 227.131 180.62 226.823 180.62 226.443C180.62 226.064 180.313 225.756 179.933 225.756C179.554 225.756 179.246 226.064 179.246 226.443C179.246 226.823 179.554 227.131 179.933 227.131Z" fill="white"/>
<path d="M333.431 119.61C333.431 119.987 333.742 120.297 334.118 120.297C334.495 120.297 334.805 119.987 334.805 119.61C334.805 119.411 334.717 119.233 334.573 119.1V72.3545L325.33 63.1117C325.574 62.7681 325.718 62.347 325.718 61.8926C325.718 60.729 324.765 59.7759 323.601 59.7759C322.437 59.7759 321.484 60.729 321.484 61.8926C321.484 63.0563 322.437 64.0094 323.601 64.0094C324.011 64.0094 324.388 63.8875 324.709 63.688L333.719 72.698V119.045C333.542 119.167 333.42 119.366 333.42 119.599L333.431 119.61ZM324.72 62.5022L324.266 62.0478C324.266 62.0478 324.299 61.9591 324.299 61.9037C324.299 61.5269 323.989 61.2166 323.612 61.2166C323.235 61.2166 322.925 61.5269 322.925 61.9037C322.925 62.2805 323.235 62.5908 323.612 62.5908L324.1 63.0785C323.945 63.1449 323.778 63.1782 323.612 63.1782C322.914 63.1782 322.338 62.613 322.338 61.9037C322.338 61.1944 322.903 60.6292 323.612 60.6292C324.321 60.6292 324.887 61.1944 324.887 61.9037C324.887 62.1254 324.831 62.3248 324.732 62.5022H324.72Z" fill="white"/>
<path d="M339.904 133.44C339.904 133.816 340.214 134.127 340.591 134.127C340.968 134.127 341.278 133.816 341.278 133.44C341.278 133.218 341.167 133.041 341.012 132.908V65.7148L338.363 63.066C338.585 62.7336 338.718 62.3346 338.718 61.9024C338.718 60.7387 337.765 59.7856 336.601 59.7856C335.437 59.7856 334.484 60.7387 334.484 61.9024C334.484 63.066 335.437 64.0191 336.601 64.0191C337.033 64.0191 337.432 63.8862 337.765 63.6645L340.159 66.0583V132.897C340.003 133.018 339.893 133.207 339.893 133.429L339.904 133.44ZM337.754 62.4454L337.288 61.98C337.288 61.98 337.299 61.9356 337.299 61.9024C337.299 61.5256 336.989 61.2153 336.612 61.2153C336.235 61.2153 335.925 61.5256 335.925 61.9024C335.925 62.2792 336.235 62.5895 336.612 62.5895C336.634 62.5895 336.657 62.5784 336.69 62.5784L337.155 63.0439C336.989 63.1215 336.801 63.1658 336.612 63.1658C335.914 63.1658 335.338 62.6006 335.338 61.8913C335.338 61.182 335.903 60.6168 336.612 60.6168C337.321 60.6168 337.887 61.182 337.887 61.8913C337.887 62.0908 337.842 62.2681 337.754 62.4343V62.4454Z" fill="white"/>
<path d="M336.592 126.348C336.592 126.725 336.902 127.035 337.279 127.035C337.656 127.035 337.966 126.725 337.966 126.348C337.966 126.127 337.855 125.949 337.7 125.816V68.9632L331.793 63.0563C332.015 62.7238 332.148 62.3248 332.148 61.8926C332.148 60.729 331.194 59.7759 330.031 59.7759C328.867 59.7759 327.914 60.729 327.914 61.8926C327.914 63.0563 328.867 64.0094 330.031 64.0094C330.463 64.0094 330.862 63.8764 331.194 63.6547L336.847 69.3068V125.805C336.691 125.927 336.581 126.115 336.581 126.337L336.592 126.348ZM331.172 62.4468L330.707 61.9813C330.707 61.9813 330.718 61.937 330.718 61.9037C330.718 61.5269 330.408 61.2166 330.031 61.2166C329.654 61.2166 329.344 61.5269 329.344 61.9037C329.344 62.2805 329.654 62.5908 330.031 62.5908C330.053 62.5908 330.075 62.5797 330.108 62.5797L330.574 63.0452C330.408 63.1228 330.219 63.1671 330.031 63.1671C329.333 63.1671 328.756 62.6019 328.756 61.8926C328.756 61.1834 329.322 60.6181 330.031 60.6181C330.74 60.6181 331.305 61.1834 331.305 61.8926C331.305 62.0921 331.261 62.2694 331.172 62.4357V62.4468Z" fill="white"/>
<path d="M258.894 224.338C258.517 224.338 258.207 224.649 258.207 225.025C258.207 225.402 258.517 225.713 258.894 225.713C259.271 225.713 259.581 225.402 259.581 225.025C259.581 224.649 259.271 224.338 258.894 224.338Z" fill="white"/>
<path d="M258.894 227.729C258.517 227.729 258.207 228.039 258.207 228.416C258.207 228.793 258.517 229.103 258.894 229.103C259.271 229.103 259.581 228.793 259.581 228.416C259.581 228.039 259.271 227.729 258.894 227.729Z" fill="white"/>
<path d="M258.894 231.11C258.517 231.11 258.207 231.42 258.207 231.797C258.207 232.174 258.517 232.484 258.894 232.484C259.271 232.484 259.581 232.174 259.581 231.797C259.581 231.42 259.271 231.11 258.894 231.11Z" fill="white"/>
<path d="M258.894 220.948C258.517 220.948 258.207 221.258 258.207 221.635C258.207 222.012 258.517 222.322 258.894 222.322C259.271 222.322 259.581 222.012 259.581 221.635C259.581 221.258 259.271 220.948 258.894 220.948Z" fill="white"/>
<path d="M258.894 217.555C258.517 217.555 258.207 217.865 258.207 218.242C258.207 218.619 258.517 218.929 258.894 218.929C259.271 218.929 259.581 218.619 259.581 218.242C259.581 217.865 259.271 217.555 258.894 217.555Z" fill="white"/>
<path d="M258.894 214.176C258.517 214.176 258.207 214.487 258.207 214.863C258.207 215.24 258.517 215.55 258.894 215.55C259.271 215.55 259.581 215.24 259.581 214.863C259.581 214.487 259.271 214.176 258.894 214.176Z" fill="white"/>
<path d="M258.894 210.938C258.517 210.938 258.207 211.248 258.207 211.625C258.207 212.002 258.517 212.312 258.894 212.312C259.271 212.312 259.581 212.002 259.581 211.625C259.581 211.248 259.271 210.938 258.894 210.938Z" fill="white"/>
<path d="M217.066 151.072C217.199 151.227 217.376 151.338 217.598 151.338C217.975 151.338 218.285 151.027 218.285 150.651C218.285 150.274 217.975 149.964 217.598 149.964C217.376 149.964 217.199 150.074 217.066 150.23H187.941V142.86C188.274 142.705 188.506 142.372 188.506 141.984C188.506 141.452 188.074 141.02 187.542 141.02C187.01 141.02 186.578 141.452 186.578 141.984C186.578 142.361 186.8 142.671 187.11 142.838V151.072H217.077H217.066Z" fill="white"/>
<path d="M214 129.661C213.623 129.661 213.312 129.971 213.312 130.348C213.312 130.725 213.623 131.035 214 131.035C214.376 131.035 214.687 130.725 214.687 130.348C214.687 129.971 214.376 129.661 214 129.661Z" fill="white"/>
<path d="M214 133.051C213.623 133.051 213.312 133.362 213.312 133.738C213.312 134.115 213.623 134.425 214 134.425C214.376 134.425 214.687 134.115 214.687 133.738C214.687 133.362 214.376 133.051 214 133.051Z" fill="white"/>
<path d="M214 136.444C213.623 136.444 213.312 136.754 213.312 137.131C213.312 137.508 213.623 137.818 214 137.818C214.376 137.818 214.687 137.508 214.687 137.131C214.687 136.754 214.376 136.444 214 136.444Z" fill="white"/>
<path d="M214 126.282C213.623 126.282 213.312 126.592 213.312 126.969C213.312 127.346 213.623 127.656 214 127.656C214.376 127.656 214.687 127.346 214.687 126.969C214.687 126.592 214.376 126.282 214 126.282Z" fill="white"/>
<path d="M214 122.889C213.623 122.889 213.312 123.199 213.312 123.576C213.312 123.953 213.623 124.263 214 124.263C214.376 124.263 214.687 123.953 214.687 123.576C214.687 123.199 214.376 122.889 214 122.889Z" fill="white"/>
<path d="M214 119.497C213.623 119.497 213.312 119.807 213.312 120.184C213.312 120.56 213.623 120.871 214 120.871C214.376 120.871 214.687 120.56 214.687 120.184C214.687 119.807 214.376 119.497 214 119.497Z" fill="white"/>
<path d="M214 116.262C213.623 116.262 213.312 116.573 213.312 116.949C213.312 117.326 213.623 117.636 214 117.636C214.376 117.636 214.687 117.326 214.687 116.949C214.687 116.573 214.376 116.262 214 116.262Z" fill="white"/>
<path d="M352.195 109.181C352.572 109.181 352.882 108.871 352.882 108.494C352.882 108.117 352.572 107.807 352.195 107.807C351.818 107.807 351.508 108.117 351.508 108.494C351.508 108.871 351.818 109.181 352.195 109.181Z" fill="white"/>
<path d="M352.195 105.789C352.572 105.789 352.882 105.478 352.882 105.102C352.882 104.725 352.572 104.415 352.195 104.415C351.818 104.415 351.508 104.725 351.508 105.102C351.508 105.478 351.818 105.789 352.195 105.789Z" fill="white"/>
<path d="M352.195 102.396C352.572 102.396 352.882 102.086 352.882 101.709C352.882 101.332 352.572 101.022 352.195 101.022C351.818 101.022 351.508 101.332 351.508 101.709C351.508 102.086 351.818 102.396 352.195 102.396Z" fill="white"/>
<path d="M352.195 99.0075C352.572 99.0075 352.882 98.6972 352.882 98.3204C352.882 97.9436 352.572 97.6333 352.195 97.6333C351.818 97.6333 351.508 97.9436 351.508 98.3204C351.508 98.6972 351.818 99.0075 352.195 99.0075Z" fill="white"/>
<path d="M352.195 95.7829C352.572 95.7829 352.882 95.4726 352.882 95.0958C352.882 94.719 352.572 94.4087 352.195 94.4087C351.818 94.4087 351.508 94.719 351.508 95.0958C351.508 95.4726 351.818 95.7829 352.195 95.7829Z" fill="white"/>
<path d="M275.261 61.5263C274.885 61.5263 274.574 61.8366 274.574 62.2134C274.574 62.5902 274.885 62.9005 275.261 62.9005C275.472 62.9005 275.66 62.7897 275.793 62.6346H299.155L302.801 58.9884V44.7918H280.725C280.525 43.8276 279.672 43.0962 278.653 43.0962C277.489 43.0962 276.536 44.0493 276.536 45.2129C276.536 46.3766 277.489 47.3297 278.653 47.3297C279.672 47.3297 280.537 46.5982 280.725 45.6341H301.959V58.6338L298.8 61.7923H295.974L292.461 58.2902H287.286C287.108 57.2928 286.255 56.5281 285.202 56.5281C284.039 56.5281 283.086 57.4812 283.086 58.6449C283.086 59.8085 284.039 60.7616 285.202 60.7616C286.2 60.7616 287.042 60.0634 287.264 59.1325H292.118L294.778 61.7923H275.782C275.66 61.6371 275.472 61.5263 275.25 61.5263H275.261ZM278.653 45.889C278.874 45.889 279.052 45.7782 279.185 45.623H279.849C279.672 46.1106 279.207 46.4763 278.653 46.4763C277.954 46.4763 277.378 45.9001 277.378 45.2019C277.378 44.5037 277.954 43.9274 278.653 43.9274C279.207 43.9274 279.672 44.282 279.849 44.7696H279.185C279.063 44.6145 278.874 44.5037 278.653 44.5037C278.276 44.5037 277.965 44.814 277.965 45.1908C277.965 45.5676 278.276 45.8779 278.653 45.8779V45.889ZM285.213 59.332C285.402 59.332 285.579 59.2544 285.701 59.1325H286.388C286.2 59.5869 285.745 59.9194 285.213 59.9194C284.515 59.9194 283.939 59.3542 283.939 58.6449C283.939 57.9356 284.504 57.3704 285.213 57.3704C285.79 57.3704 286.266 57.7583 286.432 58.2792H285.79C285.668 58.0908 285.468 57.9467 285.213 57.9467C284.837 57.9467 284.526 58.257 284.526 58.6338C284.526 59.0106 284.837 59.3209 285.213 59.3209V59.332Z" fill="white"/>
<path d="M232.276 85.7513C232.077 85.7292 231.866 85.7846 231.711 85.9397C231.445 86.2057 231.445 86.649 231.711 86.915C231.977 87.181 232.42 87.181 232.686 86.915C232.842 86.7598 232.897 86.5604 232.875 86.3498L243.946 75.2784L244.257 78.5588L239.602 83.2135C239.402 83.1913 239.192 83.2467 239.037 83.4019C238.771 83.6678 238.771 84.1111 239.037 84.3771C239.303 84.6431 239.746 84.6431 240.012 84.3771C240.167 84.222 240.223 84.0225 240.2 83.8119L245.132 78.8802L244.711 74.5137L246.938 72.2862L249.853 64.5728L241.962 56.6821C242.118 56.405 242.206 56.0836 242.206 55.7511C242.206 54.6651 241.331 53.7896 240.245 53.7896C239.159 53.7896 238.283 54.6651 238.283 55.7511C238.283 56.8372 239.159 57.7127 240.245 57.7127C240.677 57.7127 241.076 57.5687 241.397 57.3249L248.867 64.7944L246.274 71.7653L232.254 85.7735L232.276 85.7513ZM240.256 56.8372C239.646 56.8372 239.148 56.3385 239.148 55.729C239.148 55.1194 239.646 54.6207 240.256 54.6207C240.865 54.6207 241.364 55.1194 241.364 55.729C241.364 55.8287 241.331 55.9174 241.309 56.006L240.921 55.6182C240.865 55.2968 240.599 55.0419 240.256 55.0419C239.879 55.0419 239.569 55.3522 239.569 55.729C239.569 56.1058 239.879 56.4161 240.256 56.4161C240.333 56.4161 240.411 56.3939 240.477 56.3718L240.788 56.6821C240.621 56.7707 240.455 56.8372 240.256 56.8372Z" fill="white"/>
<path d="M387.518 181.227C387.518 180.695 387.085 180.263 386.553 180.263C386.21 180.263 385.922 180.451 385.755 180.717H360.31L357.174 177.581V161.19C358.138 160.99 358.869 160.137 358.869 159.118C358.869 157.954 357.916 157.001 356.753 157.001C355.589 157.001 354.636 157.954 354.636 159.118C354.636 160.137 355.367 161.002 356.332 161.19V177.924L359.967 181.56H385.667C385.755 181.792 385.922 181.97 386.143 182.08V197.086C385.911 197.197 385.744 197.396 385.656 197.651H346.767L340.24 191.124V177.57L336.605 173.935H302.97V164.016L295.943 156.99H278.921L272.914 153.986C272.892 153.621 272.604 153.333 272.238 153.333C271.872 153.333 271.551 153.643 271.551 154.02C271.551 154.396 271.861 154.707 272.238 154.707C272.293 154.707 272.349 154.685 272.404 154.674L278.721 157.832H295.589L302.116 164.36V174.777H336.25L339.386 177.913V191.467L346.413 198.494H385.789C385.966 198.737 386.243 198.915 386.564 198.915C387.096 198.915 387.529 198.482 387.529 197.95C387.529 197.563 387.307 197.252 386.986 197.086V182.08C387.307 181.925 387.529 181.604 387.529 181.216L387.518 181.227ZM355.467 159.106C355.467 158.408 356.032 157.832 356.742 157.832C357.451 157.832 358.016 158.408 358.016 159.106C358.016 159.805 357.451 160.381 356.742 160.381C356.032 160.381 355.467 159.816 355.467 159.106Z" fill="white"/>
<path d="M174.043 154.672V174.399H174.076V175.153H185.791V178.344H194.967L201.705 185.082H218.329C218.451 185.238 218.639 185.348 218.861 185.348C219.237 185.348 219.548 185.038 219.548 184.661C219.548 184.285 219.237 183.974 218.861 183.974C218.639 183.974 218.462 184.085 218.329 184.24H202.048L195.31 177.502H186.633V175.153H198.347L204.73 181.536H224.889C225.011 181.691 225.2 181.802 225.421 181.802C225.798 181.802 226.108 181.492 226.108 181.115C226.108 180.738 225.798 180.428 225.421 180.428C225.2 180.428 225.022 180.539 224.889 180.694H205.085L198.702 174.31H174.885V154.606C175.096 154.484 175.24 154.284 175.307 154.041H183.175L187.131 157.853H195.798C195.909 158.917 196.795 159.759 197.893 159.759C199.056 159.759 200.009 158.806 200.009 157.642C200.009 156.479 199.056 155.526 197.893 155.526C196.951 155.526 196.153 156.146 195.887 157.011H187.475L184.405 154.052H206.77L211.081 158.075H219.127C219.315 159.05 220.168 159.792 221.199 159.792C222.363 159.792 223.316 158.839 223.316 157.676C223.316 156.512 222.363 155.559 221.199 155.559C220.19 155.559 219.337 156.279 219.127 157.232H211.413L208.011 154.052H250.878C250.878 154.052 250.944 154.129 250.989 154.162V196.453C250.024 196.653 249.293 197.506 249.293 198.525C249.293 199.689 250.246 200.642 251.41 200.642C252.573 200.642 253.526 199.689 253.526 198.525C253.526 197.506 252.795 196.641 251.831 196.453V154.162C251.986 154.041 252.097 153.852 252.097 153.63C252.097 153.254 251.787 152.943 251.41 152.943C251.188 152.943 251.011 153.054 250.878 153.209H175.14C174.963 152.988 174.697 152.833 174.398 152.833C173.866 152.833 173.434 153.265 173.434 153.797C173.434 154.207 173.688 154.55 174.043 154.694V154.672ZM196.806 156.988C197.028 156.612 197.438 156.357 197.904 156.357C198.602 156.357 199.178 156.922 199.178 157.631C199.178 158.34 198.613 158.906 197.904 158.906C197.272 158.906 196.751 158.451 196.651 157.842H197.904V157H196.806V156.988ZM220.013 157.199C220.19 156.722 220.656 156.379 221.199 156.379C221.897 156.379 222.473 156.944 222.473 157.653C222.473 158.363 221.908 158.928 221.199 158.928C220.634 158.928 220.168 158.562 220.002 158.052H221.62V157.21H220.013V157.199ZM252.097 198.503C252.097 198.282 251.986 198.104 251.831 197.971V197.306C252.318 197.484 252.673 197.949 252.673 198.503C252.673 199.201 252.108 199.778 251.399 199.778C250.689 199.778 250.124 199.213 250.124 198.503C250.124 197.949 250.479 197.484 250.966 197.306V197.971C250.811 198.093 250.7 198.282 250.7 198.503C250.7 198.88 251.011 199.19 251.388 199.19C251.764 199.19 252.075 198.88 252.075 198.503H252.097Z" fill="white"/>
<path d="M191.745 138.783C191.745 138.251 191.313 137.819 190.781 137.819C190.249 137.819 189.816 138.251 189.816 138.783C189.816 139.182 190.049 139.514 190.393 139.67V147.882H237.404C237.526 148.037 237.715 148.148 237.936 148.148C238.313 148.148 238.624 147.837 238.624 147.461C238.624 147.084 238.313 146.773 237.936 146.773C237.715 146.773 237.537 146.884 237.404 147.039H191.235V139.625C191.534 139.459 191.745 139.16 191.745 138.794V138.783Z" fill="white"/>
<path d="M174.046 222.965V236.042H198.694V241.617H174.046V257.908C173.736 258.074 173.514 258.384 173.514 258.761C173.514 259.293 173.947 259.725 174.479 259.725C174.933 259.725 175.299 259.404 175.398 258.983L183.987 256.123H218.653V220.715C219.617 220.516 220.349 219.662 220.349 218.643C220.349 217.468 219.396 216.526 218.232 216.526C217.068 216.526 216.115 217.479 216.115 218.643C216.115 219.662 216.847 220.516 217.811 220.715V255.281H183.921L175.221 258.163C175.132 258.052 175.022 257.952 174.889 257.886V242.459H199.536V235.2H174.889V222.976C175.21 222.821 175.432 222.499 175.432 222.111C175.432 222.012 175.398 221.923 175.376 221.823L176.418 220.782L197.796 220.87C197.874 221.269 198.062 221.646 198.372 221.956C199.203 222.787 200.544 222.787 201.365 221.956C202.196 221.125 202.196 219.784 201.365 218.964C200.533 218.133 199.192 218.133 198.372 218.964C198.073 219.263 197.885 219.64 197.796 220.028L176.063 219.939L174.789 221.214C174.689 221.181 174.578 221.147 174.456 221.147C173.924 221.147 173.492 221.579 173.492 222.111C173.492 222.488 173.714 222.81 174.035 222.976L174.046 222.965ZM216.969 218.62C216.969 217.922 217.534 217.346 218.243 217.346C218.952 217.346 219.518 217.911 219.518 218.62C219.518 219.175 219.163 219.64 218.675 219.817V219.152C218.83 219.031 218.941 218.842 218.941 218.62C218.941 218.244 218.631 217.933 218.254 217.933C217.877 217.933 217.567 218.244 217.567 218.62C217.567 218.842 217.678 219.019 217.833 219.152V219.817C217.345 219.64 216.991 219.175 216.991 218.62H216.969ZM200.367 219.95C200.101 219.684 199.669 219.684 199.392 219.95C199.37 219.973 199.37 219.995 199.348 220.017H198.683C198.738 219.84 198.838 219.684 198.971 219.54C199.469 219.042 200.267 219.042 200.766 219.54C201.265 220.039 201.265 220.837 200.766 221.336C200.267 221.834 199.469 221.834 198.971 221.336C198.827 221.203 198.738 221.025 198.672 220.859H199.336C199.336 220.859 199.359 220.903 199.381 220.926C199.647 221.192 200.09 221.192 200.356 220.926C200.622 220.66 200.622 220.216 200.356 219.95H200.367Z" fill="white"/>
<path d="M174.49 283.552C174.866 283.552 175.188 283.33 175.354 283.009H214.309C214.431 283.164 214.619 283.275 214.841 283.275C215.218 283.275 215.528 282.965 215.528 282.588C215.528 282.211 215.218 281.901 214.841 281.901C214.619 281.901 214.442 282.011 214.309 282.167H175.365C175.265 281.978 175.11 281.812 174.911 281.723V270.585L177.205 272.846H214.309C214.431 273.001 214.619 273.112 214.841 273.112C215.218 273.112 215.528 272.802 215.528 272.425C215.528 272.048 215.218 271.738 214.841 271.738C214.619 271.738 214.442 271.849 214.309 272.004H195.158L197.885 269.278H207.127C207.249 269.433 207.438 269.544 207.659 269.544C208.036 269.544 208.346 269.233 208.346 268.857C208.346 268.48 208.036 268.169 207.659 268.169C207.438 268.169 207.26 268.28 207.127 268.435H197.53L193.95 272.015H185.018L190.914 266.119H200.766C200.888 266.274 201.076 266.385 201.298 266.385C201.675 266.385 201.985 266.075 201.985 265.698C201.985 265.321 201.675 265.011 201.298 265.011C201.076 265.011 200.899 265.122 200.766 265.277H191.8L194.039 263.16C194.039 263.16 194.094 263.182 194.128 263.182C194.505 263.182 194.815 262.872 194.815 262.495C194.815 262.118 194.505 261.808 194.128 261.808C193.751 261.808 193.441 262.118 193.441 262.495C193.441 262.517 193.441 262.54 193.441 262.551L190.559 265.277L183.81 272.026H177.537L174.9 269.433V269.178L177.471 266.141H183.455C183.577 266.297 183.766 266.407 183.987 266.407C184.364 266.407 184.674 266.097 184.674 265.72C184.674 265.343 184.364 265.033 183.987 265.033C183.766 265.033 183.588 265.144 183.455 265.299H177.072L174.889 267.87V262.85L183.699 259.835C183.876 260.035 184.12 260.157 184.408 260.157C184.818 260.157 185.162 259.902 185.306 259.547H207.46L214.065 266.152H217.379V275.539H176.994L176.828 275.373V276.393H218.221V265.31H214.409L207.803 258.705H185.217C185.051 258.428 184.752 258.229 184.397 258.229C183.921 258.229 183.555 258.572 183.466 259.015L174.024 262.24V281.79C173.714 281.956 173.492 282.266 173.492 282.643C173.492 283.175 173.924 283.607 174.456 283.607L174.49 283.552Z" fill="white"/>
<path d="M310.745 201.886H336.578L341.488 196.977L346.397 201.886H368.429L377.627 204.568H387.28C387.469 205.455 388.256 206.131 389.198 206.131C390.273 206.131 391.159 205.255 391.159 204.169C391.159 203.083 390.284 202.208 389.198 202.208C388.267 202.208 387.48 202.861 387.291 203.748H377.838L368.64 201.066L346.752 201.044L336.833 191.125V177.327H278.983L277.187 175.532C277.409 175.2 277.542 174.801 277.542 174.368C277.542 173.205 276.589 172.252 275.425 172.252C274.261 172.252 273.308 173.205 273.308 174.368C273.308 175.532 274.261 176.485 275.425 176.485C275.857 176.485 276.256 176.352 276.589 176.131L278.639 178.181H335.991V191.491L338.096 193.596L333.431 198.251H305.747C305.569 197.985 305.292 197.808 304.949 197.808C304.417 197.808 303.985 198.24 303.985 198.772C303.985 199.226 304.295 199.581 304.716 199.692C304.993 201.044 305.137 202.429 305.137 203.814C305.137 211.384 300.981 218.355 294.299 222.023L294.055 222.156L296.626 258.673H272.045L274.605 222.156L274.372 222.023C267.678 218.355 263.523 211.384 263.523 203.814C263.523 197.143 266.77 190.826 272.211 186.914L272.477 186.714V160.726L269.086 153.943V147.693H339.648L343.039 151.084H390.04V147.372C390.04 145.21 389.419 143.105 388.278 141.298C388.588 140.955 388.776 140.5 388.776 140.013C388.776 138.927 387.901 138.051 386.815 138.051C385.806 138.051 384.975 138.827 384.875 139.802H343.394L342.297 138.705L346.674 137.253H371.288C371.41 137.442 371.61 137.575 371.854 137.575C372.23 137.575 372.541 137.264 372.541 136.888C372.541 136.511 372.23 136.2 371.854 136.2C371.665 136.2 371.488 136.278 371.366 136.411H346.608L341.654 138.051L340.014 136.411H326.814C326.693 136.256 326.504 136.145 326.282 136.145C326.061 136.145 325.884 136.256 325.751 136.411H316.641C316.519 136.256 316.33 136.145 316.109 136.145C315.887 136.145 315.71 136.256 315.577 136.411H258.369L248.207 143.182H194.545V136.777H193.703V144.036H248.473L258.635 137.253H261.472V139.791H258.081V191.203C257.926 191.336 257.815 191.513 257.815 191.735C257.815 192.111 258.125 192.422 258.502 192.422C258.879 192.422 259.189 192.111 259.189 191.735C259.189 191.513 259.078 191.336 258.923 191.203V140.644H261.461V178.812C260.497 179.012 259.766 179.865 259.766 180.885C259.766 182.049 260.719 183.002 261.882 183.002C263.046 183.002 263.999 182.049 263.999 180.885C263.999 179.865 263.268 179.012 262.303 178.812V140.644H336.423L341.377 139.004L343.017 140.644H345.222C344.757 141.032 344.458 141.609 344.458 142.263C344.458 143.426 345.411 144.379 346.574 144.379C347.738 144.379 348.691 143.426 348.691 142.263C348.691 141.609 348.392 141.032 347.926 140.644H350.298C349.833 141.032 349.533 141.609 349.533 142.263C349.533 143.426 350.487 144.379 351.65 144.379C352.814 144.379 353.767 143.426 353.767 142.263C353.767 141.609 353.468 141.032 353.002 140.644H355.374C354.908 141.032 354.609 141.609 354.609 142.263C354.609 143.426 355.562 144.379 356.726 144.379C357.89 144.379 358.843 143.426 358.843 142.263C358.843 141.609 358.543 141.032 358.078 140.644H360.45C359.984 141.032 359.685 141.609 359.685 142.263C359.685 143.426 360.638 144.379 361.802 144.379C362.965 144.379 363.918 143.426 363.918 142.263C363.918 141.609 363.619 141.032 363.154 140.644H365.525C365.06 141.032 364.761 141.609 364.761 142.263C364.761 143.426 365.714 144.379 366.877 144.379C368.041 144.379 368.994 143.426 368.994 142.263C368.994 141.609 368.695 141.032 368.23 140.644H370.601C370.136 141.032 369.837 141.609 369.837 142.263C369.837 143.426 370.79 144.379 371.953 144.379C373.117 144.379 374.07 143.426 374.07 142.263C374.07 141.609 373.771 141.032 373.305 140.644H384.909C385.175 141.409 385.895 141.963 386.748 141.963C387.025 141.963 387.291 141.908 387.535 141.797C388.566 143.459 389.131 145.388 389.131 147.36V150.22H343.327L339.936 146.829H268.177V154.132L271.568 160.903V186.282C265.972 190.36 262.625 196.899 262.625 203.792C262.625 211.583 266.858 218.765 273.685 222.61L271.092 259.493H297.49L294.897 222.61C301.713 218.765 305.935 211.583 305.935 203.792C305.935 202.34 305.78 200.911 305.503 199.492C305.647 199.381 305.758 199.237 305.813 199.071H333.741L338.65 194.162L340.856 196.367L336.201 201.022H310.246C310.102 200.933 309.936 200.867 309.759 200.867C309.227 200.867 308.794 201.299 308.794 201.831C308.794 202.196 309.005 202.496 309.304 202.662C309.315 203.039 309.348 203.404 309.348 203.77C309.348 205.676 309.116 207.571 308.684 209.433C308.24 209.522 307.897 209.899 307.897 210.364C307.897 210.896 308.329 211.328 308.861 211.328C309.238 211.328 309.559 211.107 309.725 210.785H328.654L324.687 214.753V222.61C323.722 222.81 322.991 223.663 322.991 224.683C322.991 225.857 323.944 226.799 325.108 226.799C326.271 226.799 327.224 225.846 327.224 224.683C327.224 223.663 326.493 222.81 325.529 222.61V215.107L331.99 208.646H388.998V231.554L382.725 237.826H341.554V288.44C341.233 288.595 341.011 288.917 341.011 289.304C341.011 289.836 341.443 290.269 341.975 290.269C342.507 290.269 342.939 289.836 342.939 289.304C342.939 288.928 342.718 288.606 342.396 288.451V238.68H383.069L388.987 232.762V242.381L383.169 248.754H352.271L344.491 255.37V288.473C344.181 288.64 343.97 288.95 343.97 289.316C343.97 289.848 344.402 290.28 344.934 290.28C345.466 290.28 345.898 289.848 345.898 289.316C345.898 288.928 345.666 288.595 345.333 288.44V255.758L352.581 249.596H357.812L355.396 252.012C355.097 252.09 354.864 252.345 354.864 252.666C354.864 253.043 355.174 253.353 355.551 253.353C355.928 253.353 356.238 253.043 356.238 252.666C356.238 252.577 356.216 252.489 356.183 252.411L358.998 249.596H368.052L365.847 251.801C365.847 251.801 365.802 251.79 365.769 251.79C365.392 251.79 365.082 252.101 365.082 252.477C365.082 252.854 365.392 253.165 365.769 253.165C366.146 253.165 366.456 252.854 366.456 252.477C366.456 252.455 366.445 252.433 366.445 252.4L369.249 249.596H378.259L376.098 251.757C376.098 251.757 376.054 251.746 376.021 251.746C375.644 251.746 375.333 252.056 375.333 252.433C375.333 252.81 375.644 253.12 376.021 253.12C376.397 253.12 376.708 252.81 376.708 252.433C376.708 252.411 376.697 252.389 376.697 252.356L379.456 249.596H383.534L388.976 243.634V252.112L382.759 258.329H355.341L351.44 262.23V293.571C350.464 293.76 349.722 294.613 349.722 295.644C349.722 296.807 350.675 297.76 351.839 297.76C353.002 297.76 353.955 296.807 353.955 295.644C353.955 294.635 353.235 293.782 352.282 293.571V271.03L354.886 276.305V283.985C353.922 284.184 353.191 285.038 353.191 286.057C353.191 287.221 354.144 288.174 355.307 288.174C356.471 288.174 357.424 287.221 357.424 286.057C357.424 285.038 356.693 284.184 355.729 283.985V276.105L352.271 269.123V264.081L358.765 276.116V282.256C358.61 282.378 358.499 282.566 358.499 282.788C358.499 283.165 358.809 283.475 359.186 283.475C359.563 283.475 359.873 283.165 359.873 282.788C359.873 282.566 359.763 282.389 359.607 282.256V275.906L352.359 262.485L355.662 259.182H383.08L388.954 253.309V258.905L383.135 265.422H362.057V273.933C361.092 274.133 360.361 274.986 360.361 276.006C360.361 277.169 361.314 278.122 362.478 278.122C363.641 278.122 364.594 277.169 364.594 276.006C364.594 274.986 363.863 274.133 362.899 273.933V266.264H383.501L388.943 260.169V281.757L386.405 279.219V278.078C387.369 277.878 388.1 277.025 388.1 276.006C388.1 274.842 387.147 273.889 385.984 273.889C384.82 273.889 383.867 274.842 383.867 276.006C383.867 277.025 384.598 277.878 385.563 278.078V279.563L388.954 282.954V291.809H388.932V292.053L386.405 288.983V288.141C387.369 287.941 388.1 287.088 388.1 286.068C388.1 284.905 387.147 283.952 385.984 283.952C384.82 283.952 383.867 284.905 383.867 286.068C383.867 287.088 384.598 287.952 385.563 288.141V289.293L388.932 293.394V294.247C388.932 299.556 384.997 303.955 379.888 304.72C379.633 303.933 378.902 303.357 378.026 303.357C376.951 303.357 376.065 304.233 376.065 305.319C376.065 306.405 376.94 307.28 378.026 307.28C379.024 307.28 379.833 306.538 379.966 305.574C385.507 304.776 389.774 300.01 389.774 294.258V293.737H389.796V207.826H331.591L329.441 209.976H309.659C309.603 209.865 309.526 209.766 309.437 209.688C309.892 207.76 310.135 205.798 310.135 203.814C310.135 203.46 310.113 203.116 310.102 202.762C310.435 202.618 310.667 202.296 310.678 201.908L310.745 201.886ZM389.198 203.061C389.807 203.061 390.306 203.56 390.306 204.169C390.306 204.779 389.807 205.277 389.198 205.277C388.732 205.277 388.333 204.978 388.167 204.568H388.654C388.776 204.734 388.976 204.856 389.198 204.856C389.574 204.856 389.885 204.546 389.885 204.169C389.885 203.792 389.574 203.482 389.198 203.482C388.976 203.482 388.787 203.593 388.666 203.748H388.167C388.333 203.349 388.732 203.061 389.198 203.061ZM276.556 174.9L276.09 174.435C276.09 174.435 276.101 174.391 276.101 174.357C276.101 173.98 275.791 173.67 275.414 173.67C275.037 173.67 274.727 173.98 274.727 174.357C274.727 174.734 275.037 175.044 275.414 175.044C275.436 175.044 275.458 175.033 275.492 175.033L275.957 175.499C275.791 175.576 275.614 175.632 275.414 175.632C274.716 175.632 274.14 175.067 274.14 174.357C274.14 173.648 274.705 173.083 275.414 173.083C276.123 173.083 276.688 173.659 276.688 174.357C276.688 174.557 276.644 174.734 276.556 174.9ZM263.135 180.874C263.135 181.572 262.569 182.148 261.86 182.148C261.151 182.148 260.586 181.583 260.586 180.874C260.586 180.32 260.94 179.854 261.428 179.688V180.353C261.273 180.475 261.162 180.663 261.162 180.885C261.162 181.262 261.472 181.572 261.849 181.572C262.226 181.572 262.536 181.262 262.536 180.885C262.536 180.663 262.425 180.486 262.27 180.353V179.688C262.769 179.865 263.112 180.331 263.112 180.874H263.135ZM262.281 139.791V137.253H315.544C315.665 137.408 315.854 137.519 316.076 137.519C316.098 137.519 316.12 137.508 316.153 137.508L318.447 139.802H262.292L262.281 139.791ZM319.644 139.791L317.106 137.253H325.717C325.85 137.408 326.028 137.519 326.249 137.519C326.271 137.519 326.294 137.508 326.327 137.508L328.621 139.802H319.655L319.644 139.791ZM336.334 139.791H329.796L327.258 137.253H339.615L340.712 138.35L336.334 139.802V139.791ZM346.574 143.526C345.876 143.526 345.3 142.961 345.3 142.251C345.3 141.542 345.865 140.977 346.574 140.977C347.284 140.977 347.849 141.542 347.849 142.251C347.849 142.961 347.273 143.526 346.574 143.526ZM351.65 143.526C350.952 143.526 350.376 142.961 350.376 142.251C350.376 141.542 350.941 140.977 351.65 140.977C352.359 140.977 352.925 141.542 352.925 142.251C352.925 142.961 352.359 143.526 351.65 143.526ZM356.737 143.526C356.039 143.526 355.463 142.961 355.463 142.251C355.463 141.542 356.028 140.977 356.737 140.977C357.446 140.977 358.012 141.542 358.012 142.251C358.012 142.961 357.446 143.526 356.737 143.526ZM361.824 143.526C361.126 143.526 360.549 142.961 360.549 142.251C360.549 141.542 361.126 140.977 361.824 140.977C362.522 140.977 363.098 141.542 363.098 142.251C363.098 142.961 362.533 143.526 361.824 143.526ZM366.9 143.526C366.201 143.526 365.625 142.961 365.625 142.251C365.625 141.542 366.19 140.977 366.9 140.977C367.609 140.977 368.174 141.542 368.174 142.251C368.174 142.961 367.598 143.526 366.9 143.526ZM371.987 143.526C371.288 143.526 370.712 142.961 370.712 142.251C370.712 141.542 371.277 140.977 371.987 140.977C372.696 140.977 373.261 141.542 373.261 142.251C373.261 142.961 372.696 143.526 371.987 143.526ZM386.782 138.882C387.391 138.882 387.89 139.381 387.89 139.991C387.89 140.19 387.823 140.367 387.735 140.534C387.635 140.401 387.546 140.279 387.435 140.146C387.435 140.09 387.469 140.046 387.469 139.991C387.469 139.614 387.158 139.304 386.782 139.304C386.471 139.304 386.227 139.514 386.139 139.791H385.718C385.817 139.281 386.25 138.882 386.793 138.882H386.782ZM386.782 141.11C386.416 141.11 386.106 140.922 385.895 140.644H386.549C386.615 140.667 386.693 140.689 386.77 140.689C386.87 140.811 386.959 140.933 387.059 141.055C386.97 141.077 386.881 141.11 386.782 141.11ZM326.393 224.716C326.393 225.414 325.828 225.99 325.119 225.99C324.41 225.99 323.844 225.425 323.844 224.716C323.844 224.162 324.199 223.696 324.687 223.519V224.184C324.531 224.306 324.421 224.494 324.421 224.716C324.421 225.093 324.731 225.403 325.108 225.403C325.485 225.403 325.795 225.093 325.795 224.716C325.795 224.494 325.684 224.317 325.529 224.184V223.519C326.016 223.696 326.371 224.162 326.371 224.716H326.393ZM353.157 295.655C353.157 296.353 352.592 296.929 351.883 296.929C351.174 296.929 350.608 296.364 350.608 295.655C350.608 295.101 350.974 294.624 351.484 294.458V295.655H352.326V294.469C352.803 294.646 353.146 295.112 353.146 295.655H353.157ZM355.784 285.548V284.883C356.272 285.06 356.626 285.525 356.626 286.079C356.626 286.778 356.061 287.354 355.352 287.354C354.642 287.354 354.077 286.789 354.077 286.079C354.077 285.525 354.432 285.06 354.92 284.883V285.548C354.764 285.669 354.654 285.858 354.654 286.079C354.654 286.456 354.964 286.767 355.341 286.767C355.717 286.767 356.028 286.456 356.028 286.079C356.028 285.869 355.917 285.68 355.762 285.548H355.784ZM363.819 276.017C363.819 276.715 363.254 277.291 362.544 277.291C361.835 277.291 361.27 276.726 361.27 276.017C361.27 275.463 361.624 274.997 362.112 274.82V275.485C361.957 275.607 361.846 275.795 361.846 276.017C361.846 276.393 362.156 276.704 362.533 276.704C362.91 276.704 363.22 276.393 363.22 276.017C363.22 275.795 363.109 275.618 362.954 275.485V274.82C363.453 274.997 363.797 275.463 363.797 276.017H363.819ZM385.629 276.549V277.214C385.141 277.036 384.787 276.571 384.787 276.017C384.787 275.318 385.363 274.742 386.061 274.742C386.759 274.742 387.336 275.318 387.336 276.017C387.336 276.571 386.981 277.036 386.482 277.214V276.549C386.637 276.427 386.748 276.238 386.748 276.017C386.748 275.64 386.438 275.33 386.061 275.33C385.684 275.33 385.374 275.64 385.374 276.017C385.374 276.238 385.485 276.427 385.64 276.549H385.629ZM385.629 286.6V287.265C385.141 287.088 384.787 286.623 384.787 286.068C384.787 285.37 385.363 284.794 386.061 284.794C386.759 284.794 387.336 285.37 387.336 286.068C387.336 286.623 386.981 287.088 386.482 287.265V286.6C386.637 286.478 386.748 286.29 386.748 286.068C386.748 285.692 386.438 285.381 386.061 285.381C385.684 285.381 385.374 285.692 385.374 286.068C385.374 286.29 385.485 286.478 385.64 286.6H385.629ZM378.104 306.427C377.494 306.427 376.996 305.928 376.996 305.319C376.996 304.709 377.494 304.21 378.104 304.21C378.536 304.21 378.902 304.465 379.079 304.82C378.924 304.831 378.758 304.842 378.592 304.842C378.47 304.709 378.292 304.62 378.093 304.62C377.716 304.62 377.406 304.931 377.406 305.308C377.406 305.684 377.716 305.995 378.093 305.995C378.337 305.995 378.536 305.862 378.658 305.673C378.813 305.673 378.98 305.662 379.135 305.651C378.991 306.094 378.581 306.416 378.093 306.416L378.104 306.427Z" fill="white"/>
<path d="M244.109 46.5088C244.486 46.5088 244.808 46.2871 244.963 45.9657H255.447C255.569 46.1209 255.757 46.2317 255.979 46.2317C256.012 46.2317 256.023 46.2206 256.056 46.2206L259.193 51.3186H275.883V53.9783L267.97 56.616C267.604 55.9843 266.928 55.5521 266.141 55.5521C264.978 55.5521 264.025 56.5051 264.025 57.6688C264.025 58.8325 264.978 59.7856 266.141 59.7856C267.305 59.7856 268.258 58.8325 268.258 57.6688C268.258 57.5801 268.247 57.5026 268.236 57.4139L276.736 54.5768V51.3075H281.014C281.213 52.2716 282.067 53.0031 283.086 53.0031C284.25 53.0031 285.203 52.05 285.203 50.8863C285.203 49.7227 284.25 48.7696 283.086 48.7696C282.067 48.7696 281.213 49.501 281.014 50.4652H259.547L256.655 45.6222C256.655 45.6222 256.666 45.5779 256.666 45.5446C256.666 45.1678 256.355 44.8575 255.979 44.8575C255.757 44.8575 255.58 44.9683 255.447 45.1235H245.262C255.402 38.6735 266.851 35.2601 278.498 35.2601H289.027C295.421 35.2601 301.76 36.2797 307.856 38.2745C307.922 38.4962 308.044 38.6735 308.232 38.8065V59.8077L302.048 65.9917L302.614 66.2466C304.83 67.233 306.936 68.4409 308.942 69.8484V69.8927H309.008C321.653 78.8252 329.777 95.7481 329.777 114.333V129.804C328.901 130.004 328.247 130.78 328.247 131.711C328.247 132.797 329.123 133.672 330.209 133.672C331.295 133.672 332.17 132.797 332.17 131.711C332.17 130.78 331.517 129.993 330.63 129.804V114.333C330.63 106.93 329.356 99.7932 327.039 93.2989L328.68 91.6587L328.735 76.8414C329.123 76.7639 329.5 76.5755 329.799 76.2651C330.619 75.445 330.619 74.093 329.799 73.2729C328.968 72.4528 327.627 72.4528 326.807 73.2729C325.975 74.1041 325.975 75.445 326.807 76.2651C327.117 76.5755 327.494 76.7639 327.893 76.8414L327.837 91.304L326.718 92.4123C323.238 83.1363 317.608 75.2456 310.46 69.8817H317.198C317.32 70.0368 317.508 70.1476 317.73 70.1476C318.107 70.1476 318.417 69.8373 318.417 69.4605C318.417 69.2389 318.306 69.0616 318.151 68.9286V56.0064L320.567 51.1634C320.744 51.2077 320.922 51.241 321.11 51.241C322.274 51.241 323.227 50.2879 323.227 49.1242C323.227 47.9606 322.274 47.0075 321.11 47.0075C319.947 47.0075 318.993 47.9606 318.993 49.1242C318.993 49.8003 319.315 50.3876 319.814 50.7866L317.309 55.8069V68.9286C317.309 68.9286 317.231 68.9951 317.198 69.0283H309.296C307.468 67.7538 305.539 66.6345 303.522 65.7036L309.086 60.1402V38.9173C309.474 38.7843 309.751 38.4408 309.751 38.0085C309.751 37.4766 309.318 37.0444 308.787 37.0444C308.476 37.0444 308.21 37.1995 308.033 37.4322C301.882 35.4263 295.499 34.4067 289.038 34.4067H278.509C266.562 34.4067 254.826 37.942 244.453 44.6358C244.353 44.5915 244.231 44.5693 244.12 44.5693C243.588 44.5693 243.156 45.0016 243.156 45.5335C243.156 46.0655 243.588 46.4977 244.12 46.4977L244.109 46.5088ZM266.152 58.9322C265.454 58.9322 264.878 58.367 264.878 57.6577C264.878 56.9484 265.443 56.3832 266.152 56.3832C266.562 56.3832 266.917 56.5827 267.15 56.8709L266.518 57.0814C266.407 57.0149 266.285 56.9595 266.152 56.9595C265.776 56.9595 265.465 57.2698 265.465 57.6466C265.465 58.0234 265.776 58.3337 266.152 58.3337C266.452 58.3337 266.695 58.1453 266.795 57.8794L267.427 57.6688C267.416 58.3559 266.851 58.91 266.163 58.91L266.152 58.9322ZM283.097 49.6119C283.796 49.6119 284.372 50.1882 284.372 50.8863C284.372 51.5845 283.807 52.1608 283.097 52.1608C282.388 52.1608 281.823 51.5956 281.823 50.8863C281.823 50.1771 282.399 49.6119 283.097 49.6119ZM331.306 131.722C331.306 132.331 330.807 132.83 330.198 132.83C329.588 132.83 329.09 132.331 329.09 131.722C329.09 131.256 329.378 130.857 329.777 130.691V131.19C329.622 131.312 329.511 131.5 329.511 131.722C329.511 132.099 329.821 132.409 330.198 132.409C330.575 132.409 330.885 132.099 330.885 131.722C330.885 131.5 330.774 131.323 330.619 131.19V130.691C331.018 130.857 331.306 131.256 331.306 131.722ZM327.804 75.2566C327.804 75.2566 327.848 75.2788 327.87 75.301V75.9659C327.704 75.9105 327.538 75.8108 327.394 75.6667C326.895 75.168 326.895 74.3701 327.394 73.8713C327.893 73.3726 328.702 73.3726 329.189 73.8713C329.677 74.3701 329.688 75.168 329.189 75.6667C329.056 75.7997 328.89 75.8994 328.724 75.9548V75.2899C328.724 75.2899 328.768 75.2677 328.779 75.2456C329.045 74.9796 329.045 74.5363 328.779 74.2703C328.513 74.0043 328.081 74.0043 327.804 74.2703C327.538 74.5363 327.538 74.9796 327.804 75.2456V75.2566ZM321.11 47.8608C321.808 47.8608 322.385 48.4371 322.385 49.1353C322.385 49.8335 321.819 50.4098 321.11 50.4098C321.055 50.4098 321.01 50.4098 320.955 50.3987L321.254 49.8003C321.565 49.7338 321.797 49.4678 321.797 49.1353C321.797 48.7585 321.487 48.4482 321.11 48.4482C320.733 48.4482 320.423 48.7585 320.423 49.1353C320.423 49.2461 320.456 49.3348 320.49 49.4235L320.19 50.0108C319.969 49.7781 319.836 49.4678 319.836 49.1353C319.836 48.4371 320.401 47.8608 321.11 47.8608Z" fill="white"/>
<path d="M316.335 42.2635C316.556 42.2635 316.745 42.1748 316.9 42.064C334.044 50.8191 346.978 66.9219 353.372 86.3384H345.127V122.168C344.174 122.367 343.453 123.221 343.453 124.24C343.453 125.404 344.406 126.357 345.57 126.357C346.734 126.357 347.687 125.404 347.687 124.24C347.687 123.221 346.955 122.356 345.991 122.168V87.1806H353.638C356.353 95.7252 357.827 104.89 357.827 114.344V131.233H352.486V119.963C353.461 119.763 354.192 118.91 354.192 117.89C354.192 116.726 353.239 115.773 352.076 115.773C350.912 115.773 349.959 116.726 349.959 117.89C349.959 118.91 350.69 119.774 351.654 119.963V132.076H357.827H358.67V114.344C358.67 82.7033 342.467 54.1882 317.288 41.3214C317.288 41.3214 317.288 41.3215 317.288 41.3104C317.288 40.7784 316.856 40.3462 316.324 40.3462C315.792 40.3462 315.359 40.7784 315.359 41.3104C315.359 41.8423 315.792 42.2745 316.324 42.2745L316.335 42.2635ZM346.257 124.24C346.257 124.019 346.146 123.841 345.991 123.708V123.043C346.479 123.221 346.834 123.686 346.834 124.24C346.834 124.939 346.268 125.515 345.559 125.515C344.85 125.515 344.285 124.95 344.285 124.24C344.285 123.686 344.639 123.221 345.127 123.043V123.708C344.972 123.83 344.861 124.019 344.861 124.24C344.861 124.617 345.171 124.927 345.548 124.927C345.925 124.927 346.235 124.617 346.235 124.24H346.257ZM351.654 118.411V119.076C351.167 118.899 350.812 118.433 350.812 117.879C350.812 117.181 351.377 116.605 352.087 116.605C352.796 116.605 353.361 117.181 353.361 117.879C353.361 118.433 353.006 118.899 352.508 119.076V118.411C352.663 118.289 352.774 118.101 352.774 117.879C352.774 117.502 352.463 117.192 352.087 117.192C351.71 117.192 351.4 117.502 351.4 117.879C351.4 118.101 351.51 118.278 351.665 118.411H351.654Z" fill="white"/>
<path d="M211.004 98.3864C211.414 98.3864 211.757 98.1426 211.902 97.788L214.861 97.7658L241.104 71.5225C241.303 71.5447 241.514 71.4893 241.669 71.3341C241.935 71.0682 241.935 70.6249 241.669 70.3589C241.403 70.0929 240.96 70.0929 240.694 70.3589C240.539 70.514 240.483 70.7246 240.505 70.9241L226.963 84.4668V80.6102L233.501 74.0715C233.701 74.0937 233.911 74.0383 234.066 73.8831C234.332 73.6171 234.332 73.1738 234.066 72.9079C233.8 72.6419 233.357 72.6419 233.091 72.9079C232.936 73.063 232.881 73.2736 232.903 73.4731L226.12 80.2555V85.3091L219.803 91.6261V83.281L226.774 76.3102C226.974 76.3323 227.184 76.2769 227.328 76.1218C227.594 75.8558 227.594 75.4125 227.328 75.1465C227.062 74.8805 226.63 74.8805 226.353 75.1465C226.198 75.3017 226.142 75.5122 226.165 75.7117L219.825 82.0509L219.914 78.981C219.914 78.981 219.97 78.9478 219.992 78.9256C220.258 78.6596 220.258 78.2163 219.992 77.9504C219.726 77.6844 219.282 77.6844 219.016 77.9504C218.751 78.2163 218.751 78.6596 219.016 78.9256C219.028 78.9367 219.05 78.9478 219.061 78.9589L218.95 82.9264V92.4684L214.517 96.9014L211.846 96.9235C211.757 96.7684 211.636 96.6465 211.469 96.5578C215.071 78.6042 224.07 62.6455 236.904 51.4079C237.037 51.4744 237.181 51.5187 237.336 51.5187C237.757 51.5187 238.1 51.2527 238.233 50.8759H253.294L258.437 59.886V68.22C258.038 68.3419 257.75 68.6965 257.75 69.1287C257.75 69.2174 257.772 69.2839 257.794 69.3615C251.377 73.9718 246.18 80.5215 242.578 88.2238L231.506 99.2065L229.201 96.9457C229.423 96.6243 229.567 96.2364 229.567 95.8153C229.567 94.7292 228.691 93.8537 227.605 93.8537C226.519 93.8537 225.644 94.7292 225.644 95.8153C225.644 96.9014 226.519 97.7769 227.605 97.7769C227.96 97.7769 228.281 97.6771 228.57 97.5109L230.897 99.805L220.779 109.757V114.633C219.814 114.833 219.083 115.686 219.083 116.706C219.083 117.869 220.036 118.822 221.2 118.822C222.363 118.822 223.316 117.869 223.316 116.706C223.316 115.686 222.585 114.822 221.621 114.633V110.112L241.647 90.3295C240.494 93.0668 239.541 95.9261 238.799 98.8962L224.17 113.148V121.626C223.206 121.826 222.474 122.679 222.474 123.699C222.474 124.862 223.427 125.815 224.591 125.815C225.755 125.815 226.708 124.862 226.708 123.699C226.708 122.679 225.976 121.815 225.012 121.626V113.503L238.433 100.437C237.945 102.598 237.58 104.814 237.325 107.053L227.339 116.528V128.608C226.375 128.808 225.644 129.661 225.644 130.681C225.644 131.844 226.597 132.797 227.761 132.797C228.924 132.797 229.877 131.844 229.877 130.681C229.877 129.661 229.146 128.797 228.182 128.608V116.883L237.192 108.338C237.003 110.311 236.915 112.295 236.915 114.312V117.614L231.551 122.989C231.551 122.989 231.506 122.978 231.473 122.978C231.096 122.978 230.786 123.289 230.786 123.665C230.786 124.042 231.096 124.353 231.473 124.353C231.85 124.353 232.16 124.042 232.16 123.665C232.16 123.643 232.149 123.621 232.149 123.588L236.915 118.811V124.607L235.175 126.347C235.175 126.347 235.13 126.336 235.097 126.336C234.72 126.336 234.41 126.647 234.41 127.023C234.41 127.4 234.72 127.711 235.097 127.711C235.474 127.711 235.784 127.4 235.784 127.023C235.784 127.001 235.773 126.979 235.773 126.946L236.915 125.804V134.149C236.039 134.349 235.374 135.125 235.374 136.056C235.374 137.131 236.25 138.017 237.336 138.017C238.422 138.017 239.297 137.142 239.297 136.056C239.297 135.125 238.644 134.338 237.757 134.149V114.312C237.757 95.9815 245.625 79.114 258.337 70.0043C258.448 70.0486 258.581 70.0818 258.714 70.0818C259.246 70.0818 259.678 69.6496 259.678 69.1177C259.678 68.7963 259.512 68.5303 259.279 68.353V59.6422L253.782 50.0115H238.123C237.945 49.7455 237.668 49.5571 237.325 49.5571C236.793 49.5571 236.361 49.9893 236.361 50.5213C236.361 50.5767 236.383 50.6321 236.394 50.6875C223.35 62.0803 214.229 78.2939 210.605 96.5024C210.284 96.6575 210.051 96.9789 210.051 97.3668C210.051 97.8988 210.483 98.331 211.015 98.331L211.004 98.3864ZM227.594 96.9457C226.985 96.9457 226.486 96.447 226.486 95.8374C226.486 95.2279 226.985 94.7292 227.594 94.7292C228.204 94.7292 228.703 95.2279 228.703 95.8374C228.703 96.0258 228.647 96.1921 228.558 96.3472L228.237 96.0258C228.259 95.9593 228.281 95.9039 228.281 95.8264C228.281 95.4496 227.971 95.1393 227.594 95.1393C227.217 95.1393 226.907 95.4496 226.907 95.8264C226.907 96.181 227.173 96.4581 227.517 96.5024L227.905 96.8792C227.805 96.9124 227.705 96.9457 227.594 96.9457ZM222.452 116.728C222.452 117.426 221.876 118.002 221.178 118.002C220.479 118.002 219.903 117.437 219.903 116.728C219.903 116.174 220.258 115.708 220.745 115.531V116.196C220.59 116.318 220.479 116.506 220.479 116.728C220.479 117.105 220.79 117.415 221.166 117.415C221.543 117.415 221.854 117.105 221.854 116.728C221.854 116.506 221.743 116.329 221.588 116.196V115.531C222.075 115.708 222.441 116.174 222.441 116.728H222.452ZM225.843 123.721C225.843 124.419 225.278 124.995 224.569 124.995C223.86 124.995 223.294 124.43 223.294 123.721C223.294 123.167 223.649 122.701 224.137 122.524V123.189C223.981 123.311 223.871 123.499 223.871 123.721C223.871 124.098 224.181 124.408 224.558 124.408C224.935 124.408 225.245 124.098 225.245 123.721C225.245 123.499 225.134 123.322 224.979 123.189V122.524C225.466 122.701 225.821 123.167 225.821 123.721H225.843ZM229.024 130.714C229.024 131.412 228.459 131.988 227.749 131.988C227.04 131.988 226.475 131.423 226.475 130.714C226.475 130.16 226.83 129.694 227.317 129.517V130.182C227.162 130.304 227.051 130.492 227.051 130.714C227.051 131.091 227.362 131.401 227.738 131.401C228.115 131.401 228.425 131.091 228.425 130.714C228.425 130.492 228.315 130.315 228.16 130.182V129.517C228.647 129.694 229.002 130.16 229.002 130.714H229.024ZM238.433 136.078C238.433 136.687 237.934 137.186 237.325 137.186C236.715 137.186 236.216 136.687 236.216 136.078C236.216 135.612 236.505 135.213 236.904 135.047V135.546C236.748 135.668 236.638 135.856 236.638 136.078C236.638 136.455 236.948 136.765 237.325 136.765C237.701 136.765 238.012 136.455 238.012 136.078C238.012 135.856 237.901 135.679 237.746 135.546V135.047C238.145 135.213 238.433 135.612 238.433 136.078Z" fill="white"/>
</svg>
