<svg width="32" height="32" viewBox="0 0 32 32" fill="none" xmlns="http://www.w3.org/2000/svg">
<g clip-path="url(#clip0_0_11546)">
<path d="M22.5005 4.7417C16.283 1.15201 8.33188 3.28251 4.74219 9.50003C1.1525 15.7176 3.283 23.6687 9.50052 27.2584C15.718 30.848 23.6692 28.7176 27.2588 22.5C30.8485 16.2825 28.718 8.33139 22.5005 4.7417Z" stroke="#100A29" stroke-miterlimit="10"/>
<path d="M22.5008 4.74311C19.3577 2.92842 13.492 6.26298 9.90234 12.4805C6.31266 18.698 6.35766 25.4451 9.50079 27.2598C12.6439 29.0745 18.5095 25.7399 22.0992 19.5224C25.6889 13.3049 25.6439 6.55779 22.5008 4.74311Z" stroke="#100A29" stroke-miterlimit="10"/>
<path d="M12.832 4.16138C14.0534 6.82591 16.1531 9.2066 18.9834 10.8407C21.8137 12.4747 24.9253 13.1028 27.8435 12.8283M19.1766 27.8397C17.9553 25.1752 15.8555 22.7945 13.0253 21.1604C10.195 19.5264 7.08339 18.8983 4.16516 19.1728" stroke="#100A29" stroke-linecap="round" stroke-linejoin="round"/>
<path d="M22.5005 4.7417L9.50052 27.2584M27.2588 22.5L4.74219 9.50003" stroke="#100A29" stroke-miterlimit="10"/>
</g>
<defs>
<clipPath id="clip0_0_11546">
<rect width="32" height="32" fill="white"/>
</clipPath>
</defs>
</svg>
