<svg width="32" height="32" viewBox="0 0 32 32" fill="none" xmlns="http://www.w3.org/2000/svg">
<path d="M27 8H5C3.34315 8 2 9.34315 2 11V25C2 26.6569 3.34315 28 5 28H27C28.6569 28 30 26.6569 30 25V11C30 9.34315 28.6569 8 27 8Z" stroke="#100A29" stroke-linejoin="round"/>
<path d="M9 8V6C9 5.46957 9.21071 4.96086 9.58579 4.58579C9.96086 4.21071 10.4696 4 11 4H21C21.5304 4 22.0391 4.21071 22.4142 4.58579C22.7893 4.96086 23 5.46957 23 6V8M30 15H2M20 15V16.5C20 16.6326 19.9473 16.7598 19.8536 16.8536C19.7598 16.9473 19.6326 17 19.5 17H12.5C12.3674 17 12.2402 16.9473 12.1464 16.8536C12.0527 16.7598 12 16.6326 12 16.5V15" stroke="#100A29" stroke-linecap="round" stroke-linejoin="round"/>
</svg>
