<svg width="369" height="344" viewBox="0 0 369 344" fill="none" xmlns="http://www.w3.org/2000/svg">
<path d="M331.055 43.7047L331.001 43.7363M331.055 43.7047L331.109 43.7363M331.055 43.7047V0.999634M331.055 43.7047V43.7676M331.001 43.7363L294.508 65.1891M331.001 43.7363L331.055 43.7676M294.508 65.1891L331.055 86.4727L367.999 65.1891M294.508 65.1891V22.484L331.055 0.999634M367.999 65.1891L331.109 43.7363M367.999 65.1891V22.484L331.055 0.999634M331.109 43.7363L331.055 43.7676M184.07 43.7047L184.017 43.7363M184.07 43.7047L184.125 43.7363M184.07 43.7047V0.999634M184.07 43.7047V43.7676M184.017 43.7363L147.523 65.1891M184.017 43.7363L184.07 43.7676M147.523 65.1891L184.07 86.4727L221.015 65.1891M147.523 65.1891V22.484L184.07 0.999634M221.015 65.1891L184.125 43.7363M221.015 65.1891V22.484L184.07 0.999634M184.125 43.7363L184.07 43.7676M294.309 107.882L294.255 107.914M294.309 107.882L294.363 107.914M294.309 107.882V65.1774M294.309 107.882V107.945M294.255 107.914L257.762 129.367M294.255 107.914L294.309 107.945M257.762 129.367L294.309 150.65L331.253 129.367M257.762 129.367V86.6617L294.309 65.1774M331.253 129.367L294.363 107.914M331.253 129.367V86.6617L294.309 65.1774M294.363 107.914L294.309 107.945M331.055 171.914L331.001 171.945M331.055 171.914L331.109 171.945M331.055 171.914V129.209M331.055 171.914V171.977M331.001 171.945L294.508 193.398M331.001 171.945L331.055 171.977M294.508 193.398L331.055 214.682L367.999 193.398M294.508 193.398V150.693L331.055 129.209M367.999 193.398L331.109 171.945M367.999 193.398V150.693L331.055 129.209M331.109 171.945L331.055 171.977M294.309 236.048L294.255 236.08M294.309 236.048L294.363 236.08M294.309 236.048V193.343M294.309 236.048V236.111M294.255 236.08L257.762 257.533M294.255 236.08L294.309 236.111M257.762 257.533L294.309 278.816L331.253 257.533M257.762 257.533V214.828L294.309 193.343M331.253 257.533L294.363 236.08M331.253 257.533V214.828L294.309 193.343M294.363 236.08L294.309 236.111M220.816 236.048L220.763 236.08M220.816 236.048L220.871 236.08M220.816 236.048V193.343M220.816 236.048V236.111M220.763 236.08L184.27 257.533M220.763 236.08L220.816 236.111M184.27 257.533L220.816 278.816L257.761 257.533M184.27 257.533V214.828L220.816 193.343M257.761 257.533L220.871 236.08M257.761 257.533V214.828L220.816 193.343M220.871 236.08L220.816 236.111M220.816 107.861L220.763 107.893M220.816 107.861L220.871 107.893M220.816 107.861V65.1559M220.816 107.861V107.924M220.763 107.893L184.27 129.345M220.763 107.893L220.816 107.924M184.27 129.345L220.816 150.629L257.761 129.345M184.27 129.345V86.6403L220.816 65.1559M257.761 129.345L220.871 107.893M257.761 129.345V86.6403L220.816 65.1559M220.871 107.893L220.816 107.924M184.07 171.914L184.017 171.945M184.07 171.914L184.125 171.945M184.07 171.914V129.209M184.07 171.914V171.977M184.017 171.945L147.523 193.398M184.017 171.945L184.07 171.977M147.523 193.398L184.07 214.682L221.015 193.398M147.523 193.398V150.693L184.07 129.209M221.015 193.398L184.125 171.945M221.015 193.398V150.693L184.07 129.209M184.125 171.945L184.07 171.977M110.578 171.914L110.524 171.945M110.578 171.914L110.632 171.945M110.578 171.914V129.209M110.578 171.914V171.977M110.524 171.945L74.0312 193.398M110.524 171.945L110.578 171.977M74.0312 193.398L110.578 214.682L147.522 193.398M74.0312 193.398V150.693L110.578 129.209M147.522 193.398L110.632 171.945M147.522 193.398V150.693L110.578 129.209M110.632 171.945L110.578 171.977M147.324 236.048L147.27 236.08M147.324 236.048L147.379 236.08M147.324 236.048V193.343M147.324 236.048V236.111M147.27 236.08L110.777 257.533M147.27 236.08L147.324 236.111M110.777 257.533L147.324 278.816L184.268 257.533M110.777 257.533V214.828L147.324 193.343M184.268 257.533L147.379 236.08M184.268 257.533V214.828L147.324 193.343M147.379 236.08L147.324 236.111M184.07 300.123L184.017 300.154M184.07 300.123L184.125 300.154M184.07 300.123V257.418M184.07 300.123V300.186M184.017 300.154L147.523 321.607M184.017 300.154L184.07 300.186M147.523 321.607L184.07 342.891L221.015 321.607M147.523 321.607V278.902L184.07 257.418M221.015 321.607L184.125 300.154M221.015 321.607V278.902L184.07 257.418M184.125 300.154L184.07 300.186M37.0859 171.914L37.0322 171.945M37.0859 171.914L37.1403 171.945M37.0859 171.914V129.209M37.0859 171.914V171.977M37.0322 171.945L0.539062 193.398M37.0322 171.945L37.0859 171.977M0.539062 193.398L37.0859 214.682L74.0302 193.398M0.539062 193.398V150.693L37.0859 129.209M74.0302 193.398L37.1403 171.945M74.0302 193.398V150.693L37.0859 129.209M37.1403 171.945L37.0859 171.977M147.324 107.882L147.27 107.914M147.324 107.882L147.379 107.914M147.324 107.882V65.1774M147.324 107.882V107.945M147.27 107.914L110.777 129.367M147.27 107.914L147.324 107.945M110.777 129.367L147.324 150.65L184.268 129.367M110.777 129.367V86.6617L147.324 65.1774M184.268 129.367L147.379 107.914M184.268 129.367V86.6617L147.324 65.1774M147.379 107.914L147.324 107.945M73.832 107.882L73.7783 107.914M73.832 107.882L73.8863 107.914M73.832 107.882V65.1774M73.832 107.882V107.945M73.7783 107.914L37.2852 129.367M73.7783 107.914L73.832 107.945M37.2852 129.367L73.832 150.65L110.776 129.367M37.2852 129.367V86.6617L73.832 65.1774M110.776 129.367L73.8863 107.914M110.776 129.367V86.6617L73.832 65.1774M73.8863 107.914L73.832 107.945" stroke="white" stroke-opacity="0.25"/>
</svg>
